<svg xmlns="http://www.w3.org/2000/svg" viewBox="0 0 1563.36 1011.38"><defs><style>.cls-1{isolation:isolate;}.cls-2{fill:#444445;}.cls-3{fill:#d9d9d8;}.cls-4{fill:#a6a6a6;}.cls-5{fill:#f2f2f2;}.cls-6{fill:#737373;}.cls-7{fill:#056cf2;}.cls-8{fill:#a4d0ff;}.cls-17,.cls-24,.cls-9{fill:#fff;}.cls-10{fill:#034aa6;}.cls-11{opacity:0.42;}.cls-12{fill:#f1d0a6;}.cls-13{fill:#bf8f54;}.cls-14{fill:#fff6e9;}.cls-15{fill:#a52b23;}.cls-16{fill:#444;}.cls-16,.cls-17,.cls-18{opacity:0.5;}.cls-16,.cls-21{mix-blend-mode:multiply;}.cls-17,.cls-18{mix-blend-mode:soft-light;}.cls-19{fill:#f2ebc9;}.cls-20{fill:#fffcee;}.cls-21{opacity:0.4;}.cls-22{fill:#a6341b;}.cls-23{fill:#f0b61b;}.cls-24,.cls-26{opacity:0.6;}.cls-25{fill:#213a72;}</style></defs><g class="cls-1"><g id="Layer_2" data-name="Layer 2"><g id="Object"><path d="M156.81,1011.38H90a5,5,0,0,1,0-10h66.81a5,5,0,1,1,0,10Z"/><path d="M1558.36,1011.38H187.7a5,5,0,1,1,0-10H1558.36a5,5,0,0,1,0,10Z"/><path d="M63.81,1011.38h-21a5,5,0,0,1,0-10h21a5,5,0,1,1,0,10Z"/><path class="cls-2" d="M236.86,751.47a59.42,59.42,0,0,0-53.11,32.89A204.42,204.42,0,0,0,278.6,853a59.33,59.33,0,0,0-41.74-101.55Z"/><path class="cls-2" d="M344.84,639.27a22.27,22.27,0,1,0,22.27,22.27A22.29,22.29,0,0,0,344.84,639.27Z"/><path class="cls-2" d="M505.93,784.36A59.35,59.35,0,1,0,411.08,853,204.46,204.46,0,0,0,505.93,784.36Z"/><path class="cls-2" d="M344.84,537.9a59.33,59.33,0,0,0,58.33-70.39,203.7,203.7,0,0,0-116.66,0,59.33,59.33,0,0,0,58.33,70.39Z"/><path class="cls-2" d="M170.13,664.83A59.36,59.36,0,0,0,178,546.63a201,201,0,0,0-35.7,111.26A59.08,59.08,0,0,0,170.13,664.83Z"/><path class="cls-3" d="M344.84,326.7C160.21,326.7,10,476.91,10,661.54S160.21,996.38,344.84,996.38,679.68,846.17,679.68,661.54,529.47,326.7,344.84,326.7Zm215,549.83a304,304,0,1,1,89-215A302.09,302.09,0,0,1,559.83,876.53Z"/><path class="cls-3" d="M344.84,326.7C160.21,326.7,10,476.91,10,661.54S160.21,996.38,344.84,996.38,679.68,846.17,679.68,661.54,529.47,326.7,344.84,326.7Zm215,549.83a304,304,0,1,1,89-215A302.09,302.09,0,0,1,559.83,876.53Z"/><path class="cls-4" d="M344.84,326.7C160.21,326.7,10,476.91,10,661.54S160.21,996.38,344.84,996.38,679.68,846.17,679.68,661.54,529.47,326.7,344.84,326.7Zm215,549.83a304,304,0,1,1,89-215A302.09,302.09,0,0,1,559.83,876.53Z"/><path class="cls-5" d="M354.84,975.58a304,304,0,0,0,215-519c-1.67-1.67-3.36-3.31-5.06-4.94A304,304,0,0,1,134.92,881.47q2.43,2.55,4.93,5.06A302.09,302.09,0,0,0,354.84,975.58Z"/><path class="cls-5" d="M20,671.54C20,486.91,170.21,336.7,354.84,336.7a333.68,333.68,0,0,1,231.6,93.24c-61-63.59-146.75-103.24-241.6-103.24C160.21,326.7,10,476.91,10,661.54c0,94.85,39.65,180.61,103.24,241.6A333.68,333.68,0,0,1,20,671.54Z"/><path class="cls-4" d="M344.84,367.5c-162.13,0-294,131.91-294,294s131.91,294,294,294,294-131.91,294-294S507,367.5,344.84,367.5Zm0,41.66a69.37,69.37,0,1,1-69.37,69.37A69.45,69.45,0,0,1,344.84,409.16ZM100.76,605.46a69.37,69.37,0,1,1,69.37,69.37A69.45,69.45,0,0,1,100.76,605.46Zm136.1,274.75a69.37,69.37,0,1,1,69.38-69.37A69.45,69.45,0,0,1,236.86,880.21Zm108-186.4a32.27,32.27,0,1,1,32.27-32.27A32.3,32.3,0,0,1,344.84,693.81Zm108,186.4a69.37,69.37,0,1,1,69.38-69.37A69.45,69.45,0,0,1,452.81,880.21ZM588.92,605.49a69.37,69.37,0,1,1-69.37-69.37A69.45,69.45,0,0,1,588.92,605.49Z"/><path class="cls-6" d="M60.8,671.54c0-162.13,131.91-294,294-294A293,293,0,0,1,557.6,458.78,293.27,293.27,0,0,0,344.84,367.5c-162.13,0-294,131.91-294,294A293.27,293.27,0,0,0,142.08,874.3,293,293,0,0,1,60.8,671.54Z"/><path class="cls-2" d="M460.18,605.49a59.33,59.33,0,0,0,87.19,52.42,200.88,200.88,0,0,0-35.68-111.26A59.45,59.45,0,0,0,460.18,605.49Z"/><path d="M344.84,316.7a344.84,344.84,0,1,0,243.84,101A342.59,342.59,0,0,0,344.84,316.7Zm0,679.68C160.21,996.38,10,846.17,10,661.54S160.21,326.7,344.84,326.7,679.68,476.91,679.68,661.54,529.47,996.38,344.84,996.38Z"/><path d="M344.84,357.5a304,304,0,1,0,215,89.05A302.09,302.09,0,0,0,344.84,357.5Zm0,598.08c-162.13,0-294-131.91-294-294s131.91-294,294-294,294,131.91,294,294S507,955.58,344.84,955.58Z"/><path d="M411.08,853q2,2,4.22,3.8a209.55,209.55,0,0,0,92.92-67.27c-.68-1.77-1.45-3.51-2.29-5.19A204.46,204.46,0,0,1,411.08,853Z"/><path d="M178,546.63c-1.88-.25-3.79-.42-5.72-.49A205.8,205.8,0,0,0,137.39,655q2.38,1.59,4.92,2.94A201,201,0,0,1,178,546.63Z"/><path d="M183.75,784.36a56.13,56.13,0,0,0-2.29,5.2,209.61,209.61,0,0,0,92.92,67.26q2.19-1.8,4.22-3.8A204.42,204.42,0,0,1,183.75,784.36Z"/><path d="M511.69,546.65a200.88,200.88,0,0,1,35.68,111.26c1.69-.9,3.34-1.88,4.92-2.93A205.65,205.65,0,0,0,517.4,546.17Q514.51,546.28,511.69,546.65Z"/><path d="M403.17,467.51q-.54-2.85-1.34-5.6a208.75,208.75,0,0,0-114,0q-.8,2.74-1.34,5.6a203.7,203.7,0,0,1,116.66,0Z"/><path d="M344.84,629.27a32.27,32.27,0,1,0,32.27,32.27A32.3,32.3,0,0,0,344.84,629.27Zm0,54.54a22.27,22.27,0,1,1,22.27-22.27A22.29,22.29,0,0,1,344.84,683.81Z"/><path d="M344.84,547.9a69.37,69.37,0,1,0-69.37-69.37A69.45,69.45,0,0,0,344.84,547.9Zm-62.46-79.11a2.5,2.5,0,1,1-1.54-4.75c2.32-.76,4.66-1.46,7-2.13a59.36,59.36,0,0,1,114,0c2.34.67,4.68,1.38,7,2.13a2.5,2.5,0,0,1-.77,4.88,2.35,2.35,0,0,1-.77-.13c-1.37-.44-2.74-.87-4.12-1.28a59.37,59.37,0,1,1-116.66,0C285.13,467.92,283.75,468.35,282.38,468.79Z"/><path d="M407.29,468.79a2.35,2.35,0,0,0,.77.13,2.5,2.5,0,0,0,.77-4.88c-2.32-.75-4.66-1.46-7-2.13q.8,2.74,1.34,5.6C404.55,467.92,405.92,468.35,407.29,468.79Z"/><path d="M280.84,464a2.5,2.5,0,1,0,1.54,4.75c1.37-.44,2.75-.87,4.13-1.28q.54-2.85,1.34-5.6C285.5,462.58,283.16,463.28,280.84,464Z"/><path d="M450.18,605.49a69.37,69.37,0,1,0,69.37-69.37A69.45,69.45,0,0,0,450.18,605.49Zm128.74,0A59.37,59.37,0,0,1,552.29,655c.07,2.18.12,4.36.12,6.55v.73a2.5,2.5,0,0,1-5,0v-.73c0-1.2,0-2.41,0-3.62a59.36,59.36,0,1,1-35.68-111.26q-1.23-1.77-2.5-3.53a2.5,2.5,0,0,1,4.06-2.93c1.42,2,2.8,4,4.15,6,.72,0,1.43,0,2.15,0A59.44,59.44,0,0,1,578.92,605.49Z"/><path d="M547.41,661.53v.73a2.5,2.5,0,0,0,5,0v-.73c0-2.19,0-4.37-.12-6.55-1.58,1-3.23,2-4.92,2.93C547.39,659.12,547.41,660.33,547.41,661.53Z"/><path d="M513.25,540.19a2.5,2.5,0,0,0-4.06,2.93q1.28,1.75,2.5,3.53,2.82-.37,5.71-.48C516.05,544.16,514.67,542.16,513.25,540.19Z"/><path d="M452.81,741.47a69.37,69.37,0,1,0,69.38,69.37A69.45,69.45,0,0,0,452.81,741.47ZM512,780.34a2.5,2.5,0,0,1,.55,3.49q-2.13,2.89-4.35,5.72a59.34,59.34,0,0,1-92.92,67.27c-2.26.82-4.52,1.6-6.81,2.33a2.25,2.25,0,0,1-.77.12,2.5,2.5,0,0,1-.76-4.88c1.38-.44,2.75-.9,4.12-1.37a59.35,59.35,0,1,1,94.85-68.66c.88-1.15,1.74-2.31,2.6-3.48A2.49,2.49,0,0,1,512,780.34Z"/><path d="M508.22,789.55q2.22-2.82,4.35-5.72a2.5,2.5,0,0,0-4-3c-.86,1.17-1.72,2.33-2.6,3.48C506.77,786,507.54,787.78,508.22,789.55Z"/><path d="M407,854.39a2.5,2.5,0,0,0,.76,4.88,2.25,2.25,0,0,0,.77-.12c2.29-.73,4.55-1.51,6.81-2.33q-2.21-1.8-4.22-3.8C409.71,853.49,408.34,854,407,854.39Z"/><path d="M236.86,741.47a69.37,69.37,0,1,0,69.38,69.37A69.45,69.45,0,0,0,236.86,741.47ZM278.6,853c1.37.47,2.74.93,4.11,1.37a2.5,2.5,0,0,1-.76,4.88,2.25,2.25,0,0,1-.77-.12q-3.42-1.1-6.8-2.33a59.33,59.33,0,0,1-92.92-67.26c-1.49-1.89-2.94-3.79-4.35-5.73a2.5,2.5,0,1,1,4-3q1.29,1.75,2.61,3.48A59.35,59.35,0,1,1,278.6,853Z"/><path d="M281.18,859.15a2.25,2.25,0,0,0,.77.12,2.5,2.5,0,0,0,.76-4.88c-1.37-.44-2.74-.9-4.11-1.37q-2,2-4.22,3.8Q277.76,858.05,281.18,859.15Z"/><path d="M181.14,780.88a2.5,2.5,0,1,0-4,3c1.41,1.94,2.86,3.84,4.35,5.73a56.13,56.13,0,0,1,2.29-5.2Q182.43,782.64,181.14,780.88Z"/><path d="M239.5,605.46a69.37,69.37,0,1,0-69.37,69.37A69.45,69.45,0,0,0,239.5,605.46Zm-97.22,56.76a2.5,2.5,0,1,1-5,0v-.7c0-2.19,0-4.39.11-6.58a59.35,59.35,0,0,1,32.74-108.86c.73,0,1.45,0,2.16,0,1.35-2,2.73-4,4.16-6a2.5,2.5,0,1,1,4.05,2.92q-1.26,1.75-2.49,3.54a59.36,59.36,0,1,1-35.7,111.26c0,1.21,0,2.43,0,3.64Z"/><path d="M137.39,655c-.07,2.19-.11,4.39-.11,6.58v.7a2.5,2.5,0,1,0,5,0v-.69c0-1.21,0-2.43,0-3.64Q139.78,656.54,137.39,655Z"/><path d="M180.5,543.09a2.5,2.5,0,1,0-4.05-2.92c-1.43,2-2.81,4-4.16,6,1.93.07,3.84.24,5.72.49Q179.24,544.85,180.5,543.09Z"/><polygon class="cls-7" points="1311 442.01 1284.66 996.38 996.61 996.38 970.28 442.01 1311 442.01"/><polygon class="cls-8" points="970.28 442.01 996.61 996.38 1016.61 996.38 990.28 442.01 970.28 442.01"/><path class="cls-9" d="M942.64,422.06v4.11a5.85,5.85,0,0,0,5.84,5.84h379.43a5.85,5.85,0,0,0,5.84-5.84v-4.11a5.85,5.85,0,0,0-5.84-5.84H948.48A5.85,5.85,0,0,0,942.64,422.06Z"/><path class="cls-4" d="M1327.91,416.22h-4.16a5.84,5.84,0,0,1-5.84,5.79H942.64v4.16a5.85,5.85,0,0,0,5.84,5.84h379.43a5.85,5.85,0,0,0,5.84-5.84v-4.11A5.85,5.85,0,0,0,1327.91,416.22Z"/><path class="cls-9" d="M981.49,399.59l-2,6.63h322.26l-2-6.62c-3.62-12.15-17.39-22.41-30.06-22.41H1011.55C998.87,377.19,985.11,387.45,981.49,399.59Z"/><path class="cls-4" d="M1299.79,399.6c-3.62-12.15-17.39-22.41-30.06-22.41h-30c12.67,0,26.44,10.26,30.06,22.41l2,6.62h30Z"/><path class="cls-9" d="M1129.64,269.24l.12,0,0,0h0l6.68,1.64,17.63,4.36c2.43.52,4.46-.53,4.87-1.53s-.47-3.09-2.63-4.31l-22.2-11.71-.11-.06a2.24,2.24,0,0,0-1.77,0,7.3,7.3,0,0,0-4,4.37,7.41,7.41,0,0,0,0,6A2.28,2.28,0,0,0,1129.64,269.24Z"/><path class="cls-4" d="M1156.36,269.44l-22.2-11.71-.1-.06a1.59,1.59,0,0,0-.51-.16l18.81,9.93c2.16,1.22,3,3.32,2.63,4.31s-2.44,2.05-4.87,1.53l-17.63-4.36-4.2-1a1.11,1.11,0,0,1,.07.16,2.28,2.28,0,0,0,1.28,1.19l.12,0,0,0h0l6.68,1.64,17.63,4.36c2.43.52,4.46-.53,4.87-1.53S1158.52,270.66,1156.36,269.44Z"/><polygon class="cls-9" points="1149.93 367.19 1149.93 301.54 1126.45 301.7 1126.45 367.19 1149.93 367.19"/><polygon class="cls-4" points="1139.93 301.61 1139.93 367.19 1149.93 367.19 1149.93 301.54 1139.93 301.61"/><path class="cls-9" d="M1125.74,291.71h.13l25.09-.18c2.58-.09,4.2-1.74,4.36-2.86s-1.1-3-3.59-3.69l-4-1-20.33-5h0l-.05,0-.11,0a1.24,1.24,0,0,0-.33,0,2.65,2.65,0,0,0-1.35.5,7.51,7.51,0,0,0-2.83,5.39,7.78,7.78,0,0,0,1.56,6.11A2.2,2.2,0,0,0,1125.74,291.71Z"/><path class="cls-9" d="M1125.74,291.71h.13l25.09-.18c2.58-.09,4.2-1.74,4.36-2.86s-1.1-3-3.59-3.69l-4-1-20.33-5h0l-.05,0-.11,0a1.24,1.24,0,0,0-.33,0,2.65,2.65,0,0,0-1.35.5,7.51,7.51,0,0,0-2.83,5.39,7.78,7.78,0,0,0,1.56,6.11A2.2,2.2,0,0,0,1125.74,291.71Z"/><path class="cls-4" d="M1151.73,285l-1.23-.3a2.91,2.91,0,0,1,.82,2c-.16,1.12-1.78,2.77-4.36,2.86l-23.46.17a5.81,5.81,0,0,0,.8,1.2,2.2,2.2,0,0,0,1.44.81h.13l25.09-.18c2.58-.09,4.2-1.74,4.36-2.86S1154.22,285.68,1151.73,285Z"/><polygon class="cls-9" points="1191.14 209.34 1199.21 231.39 1365.02 171.4 1357.03 149.31 1191.14 209.34"/><path class="cls-4" d="M1194.38,208.17l-3.23,1.17,8.06,22,165.81-60-3.2-8.84-125.56,45.67c-7.4,3.09-21.91,7.7-36.75,2.25A40.18,40.18,0,0,1,1194.38,208.17Z"/><path class="cls-9" d="M1145.79,238.85l-.09-.08a2.25,2.25,0,0,0-1.73-.4,8.07,8.07,0,0,0-6.23,9,2.29,2.29,0,0,0,1,1.49l.11,0,17,8.95,5.24,2.76c2.24,1.1,4.43.61,5-.24s.27-3.1-1.54-4.81Z"/><path class="cls-4" d="M1164.53,255.54l-1.21-1.08c1.08,1.52,1.22,3.17.75,3.89s-2.81,1.34-5,.24l-5.23-2.76-16-8.46a2.23,2.23,0,0,0,1,1.46l.11,0,17,8.95,5.23,2.76c2.24,1.1,4.43.61,5-.24S1166.34,257.25,1164.53,255.54Z"/><path class="cls-9" d="M1181.37,211.72a.56.56,0,0,1,0-.12,2.26,2.26,0,0,0-1.27-1.06,7.75,7.75,0,0,0-6.26.66,7.58,7.58,0,0,0-4.07,4.55,2.27,2.27,0,0,0,.16,1.73.36.36,0,0,1,.07.1l0,0h0l4.47,6.53,9.66,14.15c1.53,2.08,3.74,2.54,4.71,2.07a3.39,3.39,0,0,0,1.39-2.46l0-.2a5.7,5.7,0,0,0-.26-2.43Z"/><path class="cls-4" d="M1190,235.28l-8.62-23.56a.56.56,0,0,1,0-.12,2.26,2.26,0,0,0-1.27-1.06c-.14-.06-.29-.1-.44-.15l8.37,22.89a5.7,5.7,0,0,1,.26,2.43l0,.2a3.39,3.39,0,0,1-1.39,2.46,3.44,3.44,0,0,1-3-.5l.29.43c1.53,2.08,3.74,2.54,4.71,2.07a3.39,3.39,0,0,0,1.39-2.46l0-.2A5.7,5.7,0,0,0,1190,235.28Z"/><path class="cls-9" d="M1161.71,223.22l-.07-.1a2.26,2.26,0,0,0-1.56-.78,8.19,8.19,0,0,0-8.33,7.29,2.29,2.29,0,0,0,.6,1.67l.09.08,12.2,10.87,6.54,5.82c1.91,1.6,4.16,1.64,5,1s1.06-3-.28-5.09Z"/><path class="cls-4" d="M1175.87,243.94l-1.81-2.64c1.1,2,.83,4,.09,4.73s-3.06.64-5-1l-6.54-5.82-10.88-9.69s0,0,0,.07a2.29,2.29,0,0,0,.6,1.67l.09.08,12.2,10.87,6.54,5.82c1.91,1.6,4.16,1.64,5,1S1177.21,246,1175.87,243.94Z"/><path d="M1364.73,141.21a5,5,0,0,0-6.4-3l-174.41,63.11-.11,0a17.8,17.8,0,0,0-14.59,1,17.56,17.56,0,0,0-8.88,10,18.17,18.17,0,0,0-18.53,16.26,18.08,18.08,0,0,0-14,20.13,18.21,18.21,0,0,0-8.75,23.05,17.57,17.57,0,0,0-6.29,11.82,18,18,0,0,0,3.65,13.45v70.13h-104.9c-17,0-34.79,13.25-39.64,29.54l-2.84,9.49H948.48a15.85,15.85,0,0,0-15.84,15.84v4.11A15.85,15.85,0,0,0,948.48,442h11.79l26.58,559.61a5,5,0,0,0,5,4.76h297.58a5,5,0,0,0,5-4.76L1321,442h6.9a15.85,15.85,0,0,0,15.84-15.84v-4.11a15.85,15.85,0,0,0-15.84-15.84h-15.7l-2.84-9.48c-4.85-16.3-22.64-29.55-39.64-29.55h-109.8V298.57a12.8,12.8,0,0,0,5.32-8.7v0a12.07,12.07,0,0,0-1.35-7,12,12,0,0,0,4.43-5.51s0,0,0,0a11.78,11.78,0,0,0,.37-7,11.8,11.8,0,0,0,5.56-4.23l0,0a11.79,11.79,0,0,0,2-6.69,11.89,11.89,0,0,0,6.41-2.79l0,0a11.9,11.9,0,0,0,3.62-6.08,12.11,12.11,0,0,0,1.58.11,11.9,11.9,0,0,0,5.42-1.28l0,0a12.71,12.71,0,0,0,6.08-7.34l173.62-62.81a5,5,0,0,0,3-6.41Zm-236.4,120.86a7.3,7.3,0,0,1,4-4.37,2.24,2.24,0,0,1,1.77,0l.11.06,22.2,11.71c2.16,1.22,3,3.32,2.63,4.31s-2.44,2.05-4.87,1.53l-17.63-4.36-6.68-1.64h0l0,0-.12,0a2.28,2.28,0,0,1-1.28-1.19A7.41,7.41,0,0,1,1128.33,262.07Zm-5.59,22.72a7.51,7.51,0,0,1,2.83-5.39,2.65,2.65,0,0,1,1.35-.5,1.24,1.24,0,0,1,.33,0l.11,0,.05,0h0l20.33,5,4,1c2.49.7,3.7,2.61,3.59,3.69s-1.78,2.77-4.36,2.86l-25.09.18h-.13a2.2,2.2,0,0,1-1.44-.81A7.78,7.78,0,0,1,1122.74,284.79Zm27.19,16.75v65.65h-23.48V301.71Zm134.74,694.84H996.61L970.28,442H1311Zm23.81-580.16h19.43a5.85,5.85,0,0,1,5.84,5.84v4.11a5.85,5.85,0,0,1-5.84,5.84H948.48a5.85,5.85,0,0,1-5.84-5.84v-4.11a5.85,5.85,0,0,1,5.84-5.84h360Zm-38.75-39c12.67,0,26.44,10.26,30.06,22.41l2,6.62H979.51l2-6.63c3.62-12.14,17.38-22.4,30.06-22.4ZM1166.07,260.35c-.62.85-2.81,1.34-5,.24l-5.24-2.76-17-8.95-.11,0a2.29,2.29,0,0,1-1-1.49,8.07,8.07,0,0,1,6.23-9,2.25,2.25,0,0,1,1.73.4l.09.08,18.74,16.69C1166.34,257.25,1166.64,259.48,1166.07,260.35ZM1176.15,249c-.81.68-3.06.64-5-1l-6.54-5.82-12.2-10.87-.09-.08a2.29,2.29,0,0,1-.6-1.67,8.19,8.19,0,0,1,8.33-7.29,2.26,2.26,0,0,1,1.56.78l.07.1,14.16,20.72C1177.21,246,1176.94,248.3,1176.15,249Zm14.1-11.32,0,.2a3.39,3.39,0,0,1-1.39,2.46c-1,.47-3.18,0-4.71-2.07l-9.66-14.15-4.47-6.53h0l0,0a.36.36,0,0,0-.07-.1,2.27,2.27,0,0,1-.16-1.73,7.58,7.58,0,0,1,4.07-4.55,7.75,7.75,0,0,1,6.26-.66,2.26,2.26,0,0,1,1.27,1.06.56.56,0,0,0,0,.12l8.62,23.56A5.7,5.7,0,0,1,1190.25,237.71Zm9-6.32-8.06-22,165.88-60,8,22.07Z"/><path class="cls-10" d="M1311,442l-26.34,554.37H1016.61c207.51,0,225.11-316.33,225.11-434.82S990.28,442,990.28,442Z"/><path class="cls-11" d="M1055.81,432.19c-5.11-.9-8.16-5.9-7-10.18a8.4,8.4,0,0,1,9-5.79h32.5a8,8,0,1,0-1.33,16q-30.12,287.1-60.23,574.19H947.64L1040.31,432Z"/><path class="cls-12" d="M1029.52,232.43a29.83,29.83,0,0,0-6.19.64h-.11l-.1,0a5.36,5.36,0,0,1-.69.06h-.14a4.7,4.7,0,0,1-.92-.09l-.25-.07a4.19,4.19,0,0,1-.63-.19l-.31-.14a5,5,0,0,1-.51-.27l-.3-.21-.43-.34-.26-.27a4.59,4.59,0,0,1-.36-.41l-.22-.32a3.84,3.84,0,0,1-.27-.49,3.54,3.54,0,0,1-.16-.34,4.91,4.91,0,0,1-.18-.58,1,1,0,0,1-.08-.25.38.38,0,0,1,0-.1.45.45,0,0,1,0-.11,29.92,29.92,0,0,0-29.59-25h-.26a5,5,0,0,1-1-.1,2.63,2.63,0,0,1-.3-.09,3.8,3.8,0,0,1-.6-.18l-.35-.17a4.31,4.31,0,0,1-.47-.26,4,4,0,0,1-.33-.24,4.39,4.39,0,0,1-.4-.33l-.28-.29-.34-.41a4,4,0,0,1-.22-.34c-.09-.15-.17-.3-.25-.46s-.11-.26-.16-.39-.11-.33-.16-.5-.07-.29-.09-.44,0-.14-.05-.21a29.86,29.86,0,0,0-13.34-21.48c-.1-.07-.18-.16-.27-.23a4.82,4.82,0,0,1-.44-.35c-.11-.11-.21-.23-.31-.35s-.22-.25-.31-.38a4.92,4.92,0,0,1-.26-.43c-.08-.14-.16-.27-.22-.4s-.11-.31-.17-.47a3.33,3.33,0,0,1-.13-.45,3.55,3.55,0,0,1-.08-.47c0-.16,0-.32,0-.48a4.35,4.35,0,0,1,0-.51,3.42,3.42,0,0,1,0-.45c0-.19.09-.38.14-.57a3,3,0,0,1,.08-.32,39,39,0,0,0-29-51.27h0l-.09,0a4.94,4.94,0,0,1-.83-.25l-.32-.17a5.05,5.05,0,0,1-.51-.28c-.12-.08-.22-.17-.33-.25a4.47,4.47,0,0,1-.4-.34,2.8,2.8,0,0,1-.28-.31,4.12,4.12,0,0,1-.33-.4l-.22-.35-.25-.47c-.06-.13-.1-.27-.15-.4a4,4,0,0,1-.15-.49,3.55,3.55,0,0,1-.08-.47,2.84,2.84,0,0,1-.06-.31,30,30,0,0,0-39.6-26h0l-.11,0a5.12,5.12,0,0,1-.84.2,4.26,4.26,0,0,1-.5,0,3.57,3.57,0,0,1-.46,0,5,5,0,0,1-.54-.07c-.14,0-.28,0-.42-.08a3.71,3.71,0,0,1-.47-.16c-.15-.06-.3-.1-.44-.17a4.25,4.25,0,0,1-.46-.27c-.12-.08-.25-.14-.37-.23a5.17,5.17,0,0,1-.66-.59l-.06-.06h0a38.94,38.94,0,0,0-67.92,26.16,5,5,0,1,1-10,0c0-.69,0-1.38,0-2.07,0-.22,0-.45,0-.68,0-.45.05-.91.09-1.36,0-.27.05-.54.08-.8,0-.41.08-.82.13-1.22s.07-.57.11-.85.11-.77.18-1.15.1-.58.15-.87.14-.74.22-1.11l.18-.86c.09-.37.17-.73.26-1.09s.15-.57.22-.86.2-.71.31-1.07.16-.56.25-.84.23-.7.35-1.06.18-.54.28-.81.26-.71.4-1.06.19-.52.3-.78.3-.73.46-1.09.2-.48.31-.71c.18-.41.38-.82.58-1.22.09-.18.17-.37.26-.55.29-.58.59-1.15.9-1.72.08-.13.16-.26.23-.39.25-.44.49-.87.75-1.29l.39-.63c.22-.34.43-.68.65-1l.47-.68c.21-.31.42-.62.64-.92l.51-.69.66-.86c.18-.23.36-.46.55-.68s.45-.56.68-.83l.58-.66c.23-.27.47-.54.72-.8s.39-.43.6-.64.5-.51.75-.77l.62-.61.8-.75.63-.57c.28-.26.57-.5.86-.74l.62-.53,1-.76c.19-.15.38-.31.58-.45.4-.31.81-.6,1.22-.89l.36-.26c.54-.38,1.08-.74,1.64-1.09l.49-.3c.4-.24.79-.49,1.19-.72l.67-.37,1.07-.59.74-.38,1-.51.78-.36,1.05-.47.81-.33,1.06-.42.83-.31.51-.18a30,30,0,0,0-53.91-3.5h0c-.08.14-.2.28-.3.42a4.27,4.27,0,0,1-.29.41h0a.27.27,0,0,0-.08.07,4.5,4.5,0,0,1-.69.62l-.31.19a6.16,6.16,0,0,1-.55.33c-.13.06-.27.1-.4.15a5,5,0,0,1-.55.17,3.1,3.1,0,0,1-.42.08,5.42,5.42,0,0,1-.58.06l-.17,0a3,3,0,0,1-.31,0l-.41,0a4.69,4.69,0,0,1-.54-.11l-.37-.1a5.65,5.65,0,0,1-.62-.28,1.89,1.89,0,0,1-.21-.09l0,0a4.83,4.83,0,0,1-.61-.43l-.19-.14s0,0,0,0a30,30,0,0,0-19.85-7.5,29.63,29.63,0,0,0-18.58,6.45l-.15.09a4.53,4.53,0,0,1-.46.3c-.13.08-.27.15-.41.22l-.45.17a4.74,4.74,0,0,1-.5.15l-.18.06-.27,0-.53,0h-.47a3.7,3.7,0,0,1-.48-.06,4.1,4.1,0,0,1-.48-.1l-.46-.14-.43-.19a4.77,4.77,0,0,1-.44-.24l-.39-.26-.37-.31a4.44,4.44,0,0,1-.37-.38,1.62,1.62,0,0,1-.18-.19s-.06-.1-.1-.15a4.43,4.43,0,0,1-.29-.46,3.23,3.23,0,0,1-.22-.41,4,4,0,0,1-.17-.44,5.16,5.16,0,0,1-.16-.52c0-.06,0-.11-.05-.17a39,39,0,0,0-38.29-31.55,36.6,36.6,0,0,0-5.42.38h-.05A39,39,0,0,0,664.3,90a5,5,0,0,1-1.75,6.85,4.94,4.94,0,0,1-2.55.71,5,5,0,0,1-4.3-2.45,49,49,0,0,1,27.54-71.74,39,39,0,1,0-47.67,60.07c.1.06.18.13.27.19a3.52,3.52,0,0,1,.45.3,4.64,4.64,0,0,1,.4.36c.08.08.17.14.25.23l.07.09c.12.14.22.3.33.45s.17.24.24.37a3.49,3.49,0,0,1,.2.44,4.32,4.32,0,0,1,.19.45c0,.15.07.3.11.46a3.89,3.89,0,0,1,.09.47,4.18,4.18,0,0,1,0,.5,3.49,3.49,0,0,1,0,.46c0,.16-.05.32-.07.48a4.1,4.1,0,0,1-.1.48,3.31,3.31,0,0,1-.14.41,4.77,4.77,0,0,1-.22.52.49.49,0,0,1,0,.11,5.6,5.6,0,0,1-.38.61l-.06.06a4.75,4.75,0,0,1-.56.62.27.27,0,0,0-.07.08,39.94,39.94,0,0,1-26.7,10.22c-.39,0-.77,0-1.15,0a5,5,0,1,1,.3-10h.85a30,30,0,0,0,14.46-3.72A48.95,48.95,0,0,1,608,31.88,30,30,0,0,0,580.72,69c0,.05,0,.1,0,.15s0,.35.07.52a4.36,4.36,0,0,1,0,.51s0,.1,0,.15,0,.2,0,.31,0,.35-.07.53l-.12.45a3.75,3.75,0,0,1-.17.47c-.06.15-.13.29-.2.43a4.23,4.23,0,0,1-.25.42c-.09.13-.18.25-.28.37a3.9,3.9,0,0,1-.33.38,3.39,3.39,0,0,1-.34.31,3.57,3.57,0,0,1-.38.3,3.91,3.91,0,0,1-.44.26l-.39.2a5.31,5.31,0,0,1-.56.2L577,75l-.2,0-.23,0a4.88,4.88,0,0,1-.76.07h-.08s0,0-.06,0h-.85A30,30,0,0,0,572.34,135a5,5,0,0,1-.41,10l-.42,0a40.22,40.22,0,0,1-36.64-39.86,39.63,39.63,0,0,1,4.75-18.94,39,39,0,0,0-47.75,38,38.81,38.81,0,0,0,1.85,11.91c0,.13,0,.27.08.4a4.48,4.48,0,0,1,.11.5,24,24,0,0,1,0,1c0,.16-.05.32-.07.48s-.05.31-.09.47-.11.3-.16.45-.11.3-.18.44a4,4,0,0,1-.24.41c-.09.14-.16.28-.26.41s-.21.24-.32.36-.21.24-.33.35-.26.2-.4.3-.25.19-.39.28l-.47.22c-.12.06-.24.13-.37.18A38.88,38.88,0,0,0,467.23,166a5.15,5.15,0,0,1-.36.79,2.43,2.43,0,0,1-.14.2,5.22,5.22,0,0,1-.38.54l-.19.2a4.78,4.78,0,0,1-.46.44l-.2.16a5.59,5.59,0,0,1-.66.41l-.09.06a5.81,5.81,0,0,1-.82.32l-.23,0c-.22.05-.44.09-.67.12l-.26,0-.25,0c-.14,0-.29,0-.43,0h-.2A30.42,30.42,0,0,0,458,169a30,30,0,0,0-30,30c0,.25,0,.51,0,.75,0,0,0,.05,0,.08s0,.33,0,.5,0,.35-.06.52a.22.22,0,0,1,0,.08c0,.11-.07.21-.1.32a5.18,5.18,0,0,1-.17.56c-.06.14-.13.26-.2.4s-.16.31-.25.45-.19.25-.29.37a3.79,3.79,0,0,1-.32.38,3,3,0,0,1-.33.29,4.23,4.23,0,0,1-.41.33c-.12.08-.24.14-.36.21s-.31.18-.48.26a3.45,3.45,0,0,1-.42.14,3.17,3.17,0,0,1-.5.15,4.46,4.46,0,0,1-.51.07,2.6,2.6,0,0,1-.39,0H423a4.79,4.79,0,0,1-1-.11,39.94,39.94,0,0,0-8-.81,39,39,0,0,0-39,39c0,.33,0,.66,0,1h678.17A29.88,29.88,0,0,0,1029.52,232.43Zm-147-82.71a4.63,4.63,0,0,1,.07-.74l0-.17s0-.07,0-.1.06-.27.1-.4a49.11,49.11,0,0,1,17.47-27.62c.07-.06.15-.1.22-.15l.36-.24a5.21,5.21,0,0,1,.47-.24l.39-.17a4.13,4.13,0,0,1,.5-.15l.4-.09a4.57,4.57,0,0,1,.52-.05l.41,0a4.78,4.78,0,0,1,.53.06,2.6,2.6,0,0,1,.39,0,5.52,5.52,0,0,1,.54.16l.36.12a4.14,4.14,0,0,1,.55.29,2.09,2.09,0,0,1,.29.16,4.39,4.39,0,0,1,.76.62,5,5,0,0,1,0,7.06h0a5.22,5.22,0,0,1-.43.39,39.18,39.18,0,0,0-13.69,20.91,4.56,4.56,0,0,1,0,.9,2.44,2.44,0,0,1-.06.26c0,.2-.08.4-.14.6,0,0,0,0,0,0l-.1.24a4.47,4.47,0,0,1-.27.59l-.16.26a5.74,5.74,0,0,1-.36.5l-.2.22a4.1,4.1,0,0,1-.53.49l-.07.07-.06,0-.15.11-.1.07-.33.24a4.11,4.11,0,0,1-.51.27c-.11.05-.22.11-.33.15a4.14,4.14,0,0,1-.6.18l-.29.08a4.7,4.7,0,0,1-.92.09,5,5,0,0,1-3.53-1.46,4.6,4.6,0,0,1-.57-.7l-.12-.17a5.62,5.62,0,0,1-.4-.77l0-.08a5.37,5.37,0,0,1-.23-.75l0-.19a5.85,5.85,0,0,1-.09-.83C882.5,149.82,882.51,149.77,882.51,149.72ZM728,95.84a5,5,0,0,1,6.36,3.1,30,30,0,0,0,54.48,5,5,5,0,0,1,8.7,4.93,40,40,0,0,1-72.64-6.71A5,5,0,0,1,728,95.84ZM481.87,217.35a5,5,0,0,1,6.58-2.59A38.52,38.52,0,0,0,504,218a39,39,0,0,0,37.15-50.91,5,5,0,1,1,9.52-3.06,49,49,0,0,1-66.22,59.9A5,5,0,0,1,481.87,217.35Z"/><path class="cls-13" d="M330.27,285a3.1,3.1,0,0,1-1.93.3C328.13,285.24,328.79,285.13,330.27,285Z"/><path class="cls-13" d="M1053.18,244H375c0-.34,0-.67,0-1,0,0,631.16,5.68,633.59-30.67a29.82,29.82,0,0,1,8.8,16.67.45.45,0,0,0,0,.11.38.38,0,0,0,0,.1,1,1,0,0,0,.08.25,4.91,4.91,0,0,0,.18.58,3.54,3.54,0,0,0,.16.34,3.84,3.84,0,0,0,.27.49l.22.32a4.59,4.59,0,0,0,.36.41l.26.27.43.34.3.21a5,5,0,0,0,.51.27l.31.14a4.19,4.19,0,0,0,.63.19l.25.07a4.7,4.7,0,0,0,.92.09h.14a5.36,5.36,0,0,0,.69-.06l.1,0h.11A30,30,0,0,1,1053.18,244Z"/><path class="cls-14" d="M897.79,158.59h0a.08.08,0,0,1,0,0Z"/><path class="cls-13" d="M898.39,158c.07-.08.14-.15.2-.23a4.54,4.54,0,0,0,.36-.5,2.33,2.33,0,0,0,.17-.26,5.3,5.3,0,0,0,.27-.59c0-.08.07-.15.1-.23s0,0,0,0a4.15,4.15,0,0,0,.14-.61,2,2,0,0,0,.06-.26,5.43,5.43,0,0,0,0-.9,39.11,39.11,0,0,1,13.68-20.91,5.3,5.3,0,0,0,.43-.38h0a5,5,0,0,0,0-7.07,4.91,4.91,0,0,0-.76-.62c-.09-.06-.19-.1-.29-.16a5.77,5.77,0,0,0-.55-.29l-.36-.12a4.81,4.81,0,0,0-.54-.16l-.39,0a4.53,4.53,0,0,0-.53,0h-.4a4.78,4.78,0,0,0-.53.06l-.4.09a4.67,4.67,0,0,0-.5.14l-.33.14a5,5,0,0,1-1.41,3.08h0a5.3,5.3,0,0,1-.43.38,39.11,39.11,0,0,0-13.68,20.91,5.43,5.43,0,0,1,0,.9,2,2,0,0,1-.06.26,4.15,4.15,0,0,1-.14.61s0,0,0,0-.07.15-.1.23a5.3,5.3,0,0,1-.27.59,2.33,2.33,0,0,1-.17.26,4.54,4.54,0,0,1-.36.5c-.06.08-.13.15-.2.23a5,5,0,0,1-.53.49l-.07.06h0l0,0a.08.08,0,0,0,0,0l-.06,0-.15.11-.1.08a3.88,3.88,0,0,1-.33.23,3.46,3.46,0,0,1-.5.27l-.1.05c0,.12,0,.24,0,.36v.14a4.58,4.58,0,0,0,.08.83,1.06,1.06,0,0,0,0,.19,5.31,5.31,0,0,0,.22.75l0,.09a6.15,6.15,0,0,0,.4.76l.12.17a4.72,4.72,0,0,0,.57.7,5,5,0,0,0,3.53,1.46,4.7,4.7,0,0,0,.92-.09,2.46,2.46,0,0,0,.29-.07,5.26,5.26,0,0,0,.6-.18l.34-.16a3.46,3.46,0,0,0,.5-.27,3.88,3.88,0,0,0,.33-.23l.1-.08.15-.11.06,0,.07-.06A5,5,0,0,0,898.39,158Z"/><path class="cls-13" d="M741.36,104a5,5,0,0,0-6.27-3.13,30,30,0,0,0,13.89,15A30,30,0,0,1,741.36,104Z"/><path class="cls-14" d="M615.71,106.8h1.15a39.94,39.94,0,0,0,26.7-10.22.27.27,0,0,0,.07-.08,4.19,4.19,0,0,0,.57-.62l0-.06a4.17,4.17,0,0,0,.38-.61l0-.1a4.87,4.87,0,0,0,.21-.53c.05-.13.11-.27.15-.41s.06-.32.09-.48a4,4,0,0,0,.07-.48c0-.15,0-.31,0-.46s0-.33,0-.49a4.1,4.1,0,0,0-.1-.48,3.28,3.28,0,0,0-.11-.45c-.05-.16-.12-.3-.18-.45s-.13-.3-.21-.45-.16-.24-.24-.37-.21-.3-.33-.45l-.07-.09a2.84,2.84,0,0,0-.25-.23l-.39-.36c-.15-.11-.3-.2-.45-.3s-.18-.13-.28-.18a38.44,38.44,0,0,1-5.2-3.35c.07.11.15.22.21.33s.14.3.21.45.13.29.18.45a3.28,3.28,0,0,1,.11.45,4.1,4.1,0,0,1,.1.48c0,.16,0,.33,0,.49s0,.31,0,.46a4,4,0,0,1-.07.48c0,.16,0,.32-.09.48s-.1.28-.15.41a4.87,4.87,0,0,1-.21.53l0,.1a4.17,4.17,0,0,1-.38.61l0,.06a4.19,4.19,0,0,1-.57.62.27.27,0,0,1-.07.08,39.9,39.9,0,0,1-25.69,10.2A5,5,0,0,0,615.71,106.8Z"/><path class="cls-13" d="M491.45,228.93A48.55,48.55,0,0,0,511,233a49,49,0,0,0,46.67-64,5,5,0,0,0-6.29-3.23l-.16.07a49,49,0,0,1-62.61,59.65A5,5,0,0,0,491.45,228.93Z"/><path class="cls-13" d="M769.74,134.2a40.06,40.06,0,0,0,34.8-20.3,5,5,0,0,0-6.38-7,5,5,0,0,1-.62,2,40,40,0,0,1-54.42,15.15A40,40,0,0,0,769.74,134.2Z"/><path class="cls-13" d="M578.52,150l.42,0a5,5,0,0,0,.4-10c-.82-.07-1.63-.18-2.44-.32a4.21,4.21,0,0,1,0,.71,5,5,0,0,1-5,4.59l-.42,0a39.28,39.28,0,0,1-16.08-4.94A39.62,39.62,0,0,0,578.52,150Z"/><path class="cls-14" d="M941.54,122.72l.15.4a5.22,5.22,0,0,0,.26.47,2.5,2.5,0,0,0,.21.35c.1.14.22.27.33.41s.18.21.28.31.26.22.4.33l.33.26q.25.15.51.27a3.41,3.41,0,0,0,.33.17,4.58,4.58,0,0,0,.82.25l.09,0h0a38.45,38.45,0,0,1,11.15,4.13,38.76,38.76,0,0,0-15.14-8.39s0,0,0,0a3.55,3.55,0,0,0,.08.47C941.43,122.4,941.49,122.56,941.54,122.72Z"/><path class="cls-13" d="M989.71,205.25a4,4,0,0,0,.15.49c0,.13.1.26.16.39a4.17,4.17,0,0,0,.26.46,4,4,0,0,0,.22.34,4.23,4.23,0,0,0,.33.41,3.83,3.83,0,0,0,.28.29,4.12,4.12,0,0,0,.4.33,3.43,3.43,0,0,0,.33.24,4.31,4.31,0,0,0,.47.26l.35.17c.2.08.4.13.6.19l.3.08a5.23,5.23,0,0,0,1,.1h.25a30.13,30.13,0,0,1,13.8,3.33,29.9,29.9,0,0,0-19.09-8.28c0,.18.06.36.08.54s0,.14,0,.22S989.67,205.1,989.71,205.25Z"/><path class="cls-14" d="M561.23,131.82a30,30,0,0,1-9.36-21.69,30,30,0,0,1,30-30h1a6.32,6.32,0,0,0,.75-.06l.24,0,.19,0a1.84,1.84,0,0,0,.25-.09,5.31,5.31,0,0,0,.56-.2l.39-.19c.15-.09.3-.17.44-.27a3.57,3.57,0,0,0,.38-.3c.12-.1.24-.2.35-.31s.22-.24.33-.37.19-.24.27-.37.17-.28.25-.43a4.11,4.11,0,0,0,.21-.42c.06-.16.11-.32.16-.48s.09-.29.12-.45,0-.35.07-.53,0-.2,0-.3,0-.11,0-.16a4.21,4.21,0,0,0,0-.5,4.34,4.34,0,0,0-.07-.52c0-.05,0-.1,0-.15a30,30,0,0,1,18.22-35.08,50,50,0,0,1,2-7A30,30,0,0,0,580.72,69s0,.1,0,.15a4.34,4.34,0,0,1,.07.52,4.21,4.21,0,0,1,0,.5s0,.1,0,.16,0,.2,0,.3,0,.36-.07.53-.08.31-.12.45-.1.32-.16.48a4.11,4.11,0,0,1-.21.42c-.08.15-.16.29-.25.43s-.18.25-.27.37-.21.25-.33.37-.23.21-.35.31a3.57,3.57,0,0,1-.38.3c-.14.1-.29.18-.44.27l-.39.19a5.31,5.31,0,0,1-.56.2A1.84,1.84,0,0,1,577,75l-.19,0-.24,0a6.32,6.32,0,0,1-.75.06h-1a30,30,0,0,0-30,30A30.18,30.18,0,0,0,561.23,131.82Z"/><path class="cls-14" d="M634.85,83a39,39,0,0,1,45-63,39,39,0,1,0-45,63Z"/><path class="cls-14" d="M658.86,70.14A38.91,38.91,0,0,0,664.3,90a5,5,0,0,1-1.74,6.85,5.25,5.25,0,0,1-1.35.55c.47.91,1,1.82,1.49,2.71a5,5,0,0,0,4.31,2.44,5.08,5.08,0,0,0,2.55-.7A5,5,0,0,0,671.3,95a39,39,0,0,1,28.09-58.49h.05a38,38,0,0,1,5.42-.38,38.93,38.93,0,0,1,19.06,5,39,39,0,0,0-26.06-10,38,38,0,0,0-5.42.38h-.05A39.12,39.12,0,0,0,658.86,70.14Z"/><path class="cls-14" d="M421,209a39.17,39.17,0,0,1,8,.82h0a5.47,5.47,0,0,0,1,.1h.16l.39,0,.52-.07c.17,0,.33-.1.49-.15s.29-.09.42-.15a4.37,4.37,0,0,0,.48-.25c.12-.07.25-.14.36-.22a3.22,3.22,0,0,0,.41-.32c.11-.1.23-.19.33-.3s.22-.25.33-.38.19-.23.28-.37a3.25,3.25,0,0,0,.25-.45c.07-.13.14-.26.2-.4a5.22,5.22,0,0,0,.18-.56c0-.11.07-.21.1-.32a.15.15,0,0,1,0-.07c0-.17,0-.35,0-.53a4.07,4.07,0,0,0,0-.5s0-.05,0-.07c0-.25,0-.5,0-.76a30,30,0,0,1,33.9-29.75h.2l.43,0,.25,0,.27,0a3.93,3.93,0,0,0,.67-.12l.22,0a4.81,4.81,0,0,0,.82-.32.47.47,0,0,1,.1,0,4.5,4.5,0,0,0,.65-.42l.2-.16a4.81,4.81,0,0,0,.47-.44l.18-.2a5.3,5.3,0,0,0,.39-.54l.13-.2a5.15,5.15,0,0,0,.36-.79,38.87,38.87,0,0,1,23.44-23.62c.13-.05.24-.12.36-.18a4,4,0,0,0,.47-.22,3.48,3.48,0,0,0,.39-.28,4.17,4.17,0,0,0,.4-.3c.12-.11.22-.23.33-.35a3.59,3.59,0,0,0,.32-.36,4.53,4.53,0,0,0,.26-.4,4.36,4.36,0,0,0,.24-.41c.07-.15.12-.3.18-.45a3.43,3.43,0,0,0,.16-.45c0-.15.06-.31.09-.47a4,4,0,0,0,.07-.48c0-.16,0-.33,0-.49s0-.33,0-.49a4.42,4.42,0,0,0-.1-.5c0-.13-.05-.27-.09-.4a39,39,0,0,1,37-50.91,41.66,41.66,0,0,1,1.88-4,39,39,0,0,0-47.76,38,38.81,38.81,0,0,0,1.85,11.91c0,.13.06.27.09.4a4.42,4.42,0,0,1,.1.5c0,.16,0,.33,0,.49s0,.33,0,.49a4,4,0,0,1-.07.48c0,.16-.05.32-.09.47a3.43,3.43,0,0,1-.16.45c-.06.15-.11.3-.18.45a4.36,4.36,0,0,1-.24.41,4.53,4.53,0,0,1-.26.4,3.59,3.59,0,0,1-.32.36c-.11.12-.21.24-.33.35a4.17,4.17,0,0,1-.4.3,3.48,3.48,0,0,1-.39.28,4,4,0,0,1-.47.22c-.12.06-.23.13-.36.18A38.87,38.87,0,0,0,467.23,166a5.15,5.15,0,0,1-.36.79l-.13.2a5.3,5.3,0,0,1-.39.54l-.18.2a4.81,4.81,0,0,1-.47.44l-.2.16a4.5,4.5,0,0,1-.65.42.47.47,0,0,0-.1,0,4.81,4.81,0,0,1-.82.32l-.22,0a3.93,3.93,0,0,1-.67.12l-.27,0-.25,0-.43,0h-.2A30,30,0,0,0,428,199c0,.26,0,.51,0,.76,0,0,0,.05,0,.07a4.07,4.07,0,0,1,0,.5c0,.18,0,.36,0,.53a.15.15,0,0,0,0,.07c0,.11-.07.21-.1.32a5.22,5.22,0,0,1-.18.56c-.06.14-.13.27-.2.4a3.25,3.25,0,0,1-.25.45c-.09.14-.19.25-.28.37s-.21.26-.33.38-.22.2-.33.3a3.22,3.22,0,0,1-.41.32c-.11.08-.24.15-.36.22a4.37,4.37,0,0,1-.48.25c-.13.06-.28.1-.42.15s-.32.11-.49.15l-.52.07-.39,0H423a5.47,5.47,0,0,1-1-.1h0A39,39,0,0,0,375,243c0,.33,0,.67,0,1h7.17A39,39,0,0,1,421,209Z"/><path class="cls-13" d="M1024.37,234l0,.12a.28.28,0,0,0,0,.09c0,.09.06.17.08.26a5.4,5.4,0,0,0,.18.57c0,.12.11.23.16.35s.18.33.28.49.14.21.22.31a4.47,4.47,0,0,0,.35.41,2.29,2.29,0,0,0,.27.27,3.57,3.57,0,0,0,.43.34,3.06,3.06,0,0,0,.29.21,5.12,5.12,0,0,0,.52.27l.3.14a4.57,4.57,0,0,0,.63.19,2.5,2.5,0,0,0,.26.07,4.63,4.63,0,0,0,.92.09h.14a5.51,5.51,0,0,0,.69-.06l.1,0h.1a30.6,30.6,0,0,1,6.19-.64,29.94,29.94,0,0,1,13.73,3.33,29.89,29.89,0,0,0-26.09-7.84Q1024.28,233.46,1024.37,234Z"/><path class="cls-14" d="M896.27,94h0l.07.06a4.7,4.7,0,0,0,.66.6,2.67,2.67,0,0,0,.36.22c.16.1.3.2.46.28l.44.16a4.43,4.43,0,0,0,.47.17l.43.07a4.85,4.85,0,0,0,.53.08,3.54,3.54,0,0,0,.46,0,2.79,2.79,0,0,0,.5,0,5.7,5.7,0,0,0,.84-.19l.11,0h0A29.92,29.92,0,0,1,925,97.17a29.94,29.94,0,0,0-30.39-6.74h0l-.11,0a5.7,5.7,0,0,1-.84.19,2.79,2.79,0,0,1-.5,0h-.34A41.8,41.8,0,0,1,896.27,94Z"/><path class="cls-14" d="M743.15,67.69c0,.06,0,.11.05.17a4.48,4.48,0,0,0,.16.52,3.34,3.34,0,0,0,.17.44,4.23,4.23,0,0,0,.22.42c.09.15.19.31.29.45s.06.11.1.15.13.13.19.2a3.15,3.15,0,0,0,.36.37,3.68,3.68,0,0,0,.38.31,2.7,2.7,0,0,0,.39.27,3.62,3.62,0,0,0,.43.24l.43.18a4.26,4.26,0,0,0,.47.15l.47.1.48,0a3.85,3.85,0,0,0,.48,0,3.05,3.05,0,0,0,.52,0,2.45,2.45,0,0,0,.27,0l.18-.05a4.16,4.16,0,0,0,.5-.16,3,3,0,0,0,.45-.17,3.23,3.23,0,0,0,.41-.22,3.58,3.58,0,0,0,.46-.29l.16-.1a29.6,29.6,0,0,1,18.57-6.45,30,30,0,0,1,19.85,7.51h0a1.15,1.15,0,0,0,.19.14,6.25,6.25,0,0,0,.61.44l0,0,.22.1a4.85,4.85,0,0,0,.62.27l.36.1.54.12.41,0,.31,0,.18,0a5.51,5.51,0,0,0,.57-.06l.42-.07c.19,0,.37-.11.56-.18s.26-.09.39-.15a6.22,6.22,0,0,0,.56-.32c.1-.07.21-.12.31-.2a5,5,0,0,0,.68-.62l.08-.07h0c.11-.12.2-.27.3-.4s.21-.28.3-.43h0a30,30,0,0,1,39.9-11.89,30,30,0,0,0-46.9,6.89h0c-.09.15-.2.28-.3.43s-.19.28-.3.4h0l-.08.07a5,5,0,0,1-.68.62c-.1.08-.21.13-.31.2a6.22,6.22,0,0,1-.56.32c-.13.06-.26.1-.39.15s-.37.13-.56.18l-.42.07a5.51,5.51,0,0,1-.57.06l-.18,0-.31,0-.41,0-.54-.12-.36-.1a4.85,4.85,0,0,1-.62-.27l-.22-.1,0,0a6.25,6.25,0,0,1-.61-.44,1.15,1.15,0,0,1-.19-.14h0a30,30,0,0,0-19.85-7.51,29.6,29.6,0,0,0-18.57,6.45l-.16.1a3.58,3.58,0,0,1-.46.29,3.23,3.23,0,0,1-.41.22l-.27.11C743,66.81,743.07,67.25,743.15,67.69Z"/><path class="cls-14" d="M824.78,99.11a39.05,39.05,0,0,0-3.43,16.09,5,5,0,0,1-3,4.57c0,.15,0,.29,0,.43a5,5,0,1,0,10,0,38.85,38.85,0,0,1,30.22-38h0a39,39,0,0,1,27.84,4,39.06,39.06,0,0,0-34.84-9h0A38.76,38.76,0,0,0,824.78,99.11Z"/><path class="cls-15" d="M560.55,996.38H462l0-.32L388.55,311.84H516.62L560.07,989Z"/><path class="cls-9" d="M663.43,996.38H565.56L565,988.3,521.63,311.84H648.81q.15,7.35.31,14.69,6.84,320.51,13.7,641,.16,7.53.32,15.06Z"/><path class="cls-9" d="M457,996.38H434.57L375.43,311.84h8.09Q420.24,654,457,996.17A1.49,1.49,0,0,0,457,996.38Z"/><path class="cls-15" d="M780.69,311.84q-.57,26.87-1.15,53.74-3.07,144.2-6.16,288.38l-5.67,265.51q-.83,38.46-1.64,76.91H668.43l-.29-13.88q-.18-8.25-.35-16.5Q661,646.77,654.15,327.54q-.18-7.85-.34-15.7Z"/><path class="cls-15" d="M1045.94,311.84,972.48,996.38H873.94Q881.72,875.18,889.5,754q8.6-133.77,17.17-267.53,5.61-87.3,11.21-174.6Z"/><path class="cls-9" d="M912.87,311.84,902.43,474.46Q892.89,623.25,883.32,772q-7.19,112.17-14.4,224.34H771.07q.85-40.17,1.72-80.35,2.79-131,5.59-262,3.06-143.15,6.11-286.28.62-28,1.2-56Z"/><polygon class="cls-9" points="1059.07 311.84 999.93 996.38 977.51 996.38 1050.97 311.84 1059.07 311.84"/><path class="cls-16" d="M457,996.17a1.49,1.49,0,0,0,0,.21H434.57Q446,996.38,457,996.17Z"/><path class="cls-16" d="M560.07,989l.48,7.42H462l0-.32A940.45,940.45,0,0,0,560.07,989Z"/><path class="cls-16" d="M649.12,326.53a1005.14,1005.14,0,0,0-105.19-14.69H648.81Q649,319.19,649.12,326.53Z"/><path class="cls-16" d="M663.14,982.61l.29,13.77H565.56L565,988.3c36.19-4.89,68.66-11.9,97.78-20.75Q663,975.08,663.14,982.61Z"/><path class="cls-16" d="M667.79,966c39.17-12.35,72.15-28.09,99.92-46.53q-.83,38.46-1.64,76.91H668.43l-.29-13.88Q668,974.25,667.79,966Z"/><path class="cls-16" d="M654.15,327.54q-.18-7.85-.34-15.7H780.69q-.57,26.87-1.15,53.74C739.62,348,695.46,335.91,654.15,327.54Z"/><path class="cls-16" d="M883.32,772q-7.19,112.17-14.4,224.34H771.07q.85-40.17,1.72-80.35C828.85,877.25,862.86,827.18,883.32,772Z"/><path class="cls-16" d="M784.49,367.79q.62-28,1.2-56H912.87L902.43,474.46C882.85,426.23,837.77,392,784.49,367.79Z"/><path class="cls-16" d="M1045.94,311.84,972.48,996.38H873.94Q881.72,875.18,889.5,754c22.85-72.79,24.48-153,23.37-227a145.89,145.89,0,0,0-6.2-40.53q5.61-87.3,11.21-174.6Z"/><polygon class="cls-16" points="1059.07 311.84 999.93 996.38 977.51 996.38 1050.97 311.84 1059.07 311.84"/><path class="cls-9" d="M1066.25,254h-698c-13.78,0-25,10.73-25,23.92s11.22,23.92,25,23.92h698c13.79,0,25-10.73,25-23.92S1080,254,1066.25,254Z"/><path class="cls-4" d="M1066.57,254a23.09,23.09,0,0,1,4.68,13.91c0,13.19-11.21,23.92-25,23.92H347.93a25.33,25.33,0,0,0,20.32,10h698c13.79,0,25-10.73,25-23.92S1080.21,254.17,1066.57,254Z"/><path d="M1066.25,244H1065a39.89,39.89,0,0,0-35.5-21.57c-1.13,0-2.26.06-3.39.16a39.81,39.81,0,0,0-34.37-28.39,39.85,39.85,0,0,0-14-22.19,49,49,0,0,0-34-60,40,40,0,0,0-49.29-32A49.09,49.09,0,0,0,860.35,66.2a48.46,48.46,0,0,0-6.37.43A40,40,0,0,0,784.7,55.78a40,40,0,0,0-22-6.57,39.5,39.5,0,0,0-18.67,4.62,49.07,49.07,0,0,0-46.21-32.69c-1.21,0-2.42.05-3.6.13A49,49,0,0,0,613,22c-1-.09-2.1-.13-3.15-.13a40,40,0,0,0-40,40c0,1.21.07,2.42.18,3.62a39.73,39.73,0,0,0-24.13,12.14,49,49,0,0,0-64,46.63A49.37,49.37,0,0,0,483,134.73,48.67,48.67,0,0,0,459.26,159c-.43,0-.86,0-1.28,0a40,40,0,0,0-39.69,35.2c-1.43-.12-2.87-.2-4.31-.2a49.05,49.05,0,0,0-49,49c0,.38,0,.77,0,1.15-17.78,1.6-31.75,16.13-31.75,33.77s14.17,32.38,32.14,33.8L425,1001.81a5,5,0,0,0,5,4.57h574.54a5,5,0,0,0,5-4.57l59.62-690.09c18-1.42,32.13-16,32.13-33.8C1101.25,259.22,1085.55,244,1066.25,244ZM414,204a39.17,39.17,0,0,1,8,.82h0a5.47,5.47,0,0,0,1,.1h.16l.39,0,.52-.07c.17,0,.33-.1.49-.15s.29-.09.42-.15a4.37,4.37,0,0,0,.48-.25c.12-.07.25-.14.36-.22a3.22,3.22,0,0,0,.41-.32c.11-.1.23-.19.33-.3a3.79,3.79,0,0,0,.32-.38,3.65,3.65,0,0,0,.29-.37,3.25,3.25,0,0,0,.25-.45c.07-.13.14-.26.2-.4a5.22,5.22,0,0,0,.18-.56c0-.11.07-.21.1-.32a.15.15,0,0,1,0-.07c0-.17,0-.35,0-.53a4.07,4.07,0,0,0,0-.5s0-.05,0-.07c0-.25,0-.5,0-.76a30,30,0,0,1,33.9-29.75h.2l.43,0,.25,0,.27,0a3.93,3.93,0,0,0,.67-.12l.22,0a4.81,4.81,0,0,0,.82-.32.47.47,0,0,1,.1,0,4.5,4.5,0,0,0,.65-.42l.2-.16a4.81,4.81,0,0,0,.47-.44l.18-.2a5.3,5.3,0,0,0,.39-.54l.13-.2a5.15,5.15,0,0,0,.36-.79,38.87,38.87,0,0,1,23.44-23.62c.13-.05.24-.12.36-.18a4,4,0,0,0,.47-.22,3.48,3.48,0,0,0,.39-.28,4.17,4.17,0,0,0,.4-.3c.12-.11.22-.23.33-.35a3.59,3.59,0,0,0,.32-.36,4.53,4.53,0,0,0,.26-.4,4.36,4.36,0,0,0,.24-.41c.07-.15.12-.3.18-.45a3.43,3.43,0,0,0,.16-.45c0-.15.06-.31.09-.47a4,4,0,0,0,.07-.48c0-.16,0-.33,0-.49s0-.33,0-.49a4.42,4.42,0,0,0-.1-.5c0-.13-.05-.27-.09-.4A39,39,0,0,1,530.87,85.2a39.35,39.35,0,0,1,8.76,1,39.55,39.55,0,0,0-4.76,18.94A40.2,40.2,0,0,0,571.52,145l.42,0a5,5,0,0,0,.4-10,30.15,30.15,0,0,1-27.47-29.9,30,30,0,0,1,30-30h1a6.32,6.32,0,0,0,.75-.06l.24,0,.19,0a1.84,1.84,0,0,0,.25-.09,5.31,5.31,0,0,0,.56-.2l.39-.19c.15-.09.3-.17.44-.27a3.57,3.57,0,0,0,.38-.3c.12-.1.24-.2.35-.31s.22-.24.33-.37.19-.24.27-.37.17-.28.25-.43a4.11,4.11,0,0,0,.21-.42c.06-.16.11-.32.16-.48s.09-.29.12-.45,0-.35.07-.53,0-.2,0-.3,0-.11,0-.16a4.21,4.21,0,0,0,0-.5,4.34,4.34,0,0,0-.07-.52c0-.05,0-.1,0-.15A30,30,0,0,1,608,31.89,48.91,48.91,0,0,0,624.32,88.1a30,30,0,0,1-14.46,3.71H609a5,5,0,1,0-.3,10h1.15a39.94,39.94,0,0,0,26.7-10.22.27.27,0,0,0,.07-.08,4.19,4.19,0,0,0,.57-.62l0-.06a4.17,4.17,0,0,0,.38-.61l0-.1a4.87,4.87,0,0,0,.21-.53c.05-.13.11-.27.15-.41s.06-.32.09-.48a4,4,0,0,0,.07-.48c0-.15,0-.31,0-.46s0-.33,0-.49a4.1,4.1,0,0,0-.1-.48,3.28,3.28,0,0,0-.11-.45c-.05-.16-.12-.3-.18-.45s-.13-.3-.21-.45-.16-.24-.24-.37-.21-.3-.33-.45l-.07-.09a2.84,2.84,0,0,0-.25-.23l-.39-.36c-.15-.11-.3-.2-.45-.3s-.18-.13-.28-.18a39,39,0,1,1,47.67-60.08A49,49,0,0,0,655.7,95.13,5,5,0,0,0,660,97.57a5.08,5.08,0,0,0,2.55-.7A5,5,0,0,0,664.3,90a39,39,0,0,1,28.09-58.49h.05a38,38,0,0,1,5.42-.38,39,39,0,0,1,38.29,31.55c0,.06,0,.11.05.17a4.48,4.48,0,0,0,.16.52,3.34,3.34,0,0,0,.17.44,4.23,4.23,0,0,0,.22.42c.09.15.19.31.29.45s.06.11.1.15.13.13.19.2a3.15,3.15,0,0,0,.36.37,3.68,3.68,0,0,0,.38.31,2.7,2.7,0,0,0,.39.27,3.62,3.62,0,0,0,.43.24l.43.18a4.26,4.26,0,0,0,.47.15l.47.1.48,0a3.85,3.85,0,0,0,.48,0,3.05,3.05,0,0,0,.52,0,2.45,2.45,0,0,0,.27,0l.18-.05a4.16,4.16,0,0,0,.5-.16,3,3,0,0,0,.45-.17,3.23,3.23,0,0,0,.41-.22,3.58,3.58,0,0,0,.46-.29l.16-.1a29.6,29.6,0,0,1,18.57-6.45,30,30,0,0,1,19.85,7.51h0a1.15,1.15,0,0,0,.19.14,6.25,6.25,0,0,0,.61.44l0,0,.22.1a4.85,4.85,0,0,0,.62.27l.36.1.54.12.41,0,.31,0,.18,0a5.51,5.51,0,0,0,.57-.06l.42-.07c.19,0,.37-.11.56-.18s.26-.09.39-.15a6.22,6.22,0,0,0,.56-.32c.1-.07.21-.12.31-.2a5,5,0,0,0,.68-.62l.08-.07h0c.11-.12.2-.27.3-.4s.21-.28.3-.43h0a30,30,0,0,1,53.92,3.5l-.51.19-.84.3-1.06.42-.81.34-1.05.46-.78.36-1,.52-.74.37-1.07.59-.66.37-1.2.72-.49.31c-.55.35-1.1.71-1.63,1.08l-.37.26-1.22.89-.58.45-1,.76-.62.53-.86.74-.63.57-.8.75-.61.61-.76.78-.6.63-.72.8-.57.66-.69.83-.55.68-.66.87-.51.68-.64.92-.46.68c-.22.34-.44.68-.65,1s-.27.41-.39.62q-.39.65-.75,1.29c-.08.13-.16.26-.23.4-.31.56-.62,1.13-.91,1.71-.09.18-.17.37-.26.55-.2.41-.39.81-.58,1.22-.1.23-.2.47-.31.71l-.46,1.09-.3.78c-.14.35-.27.71-.4,1.06s-.19.55-.28.82-.24.7-.35,1.06-.17.56-.25.84-.21.71-.3,1.07-.15.57-.22.85-.18.73-.26,1.09-.13.57-.19.86-.15.74-.22,1.12l-.15.86c-.06.38-.12.77-.17,1.15l-.12.85c-.05.4-.09.81-.13,1.22s-.06.53-.08.8c0,.45-.06.91-.08,1.36,0,.23,0,.46-.05.69,0,.68,0,1.37,0,2.06a5,5,0,1,0,10,0,38.85,38.85,0,0,1,30.22-38h0A39.08,39.08,0,0,1,889.27,89h0l.07.06a4.7,4.7,0,0,0,.66.6,2.67,2.67,0,0,0,.36.22c.16.1.3.2.46.28l.44.16a3.9,3.9,0,0,0,.48.17l.42.07a4.85,4.85,0,0,0,.53.08,3.54,3.54,0,0,0,.46,0,2.79,2.79,0,0,0,.5,0,5.7,5.7,0,0,0,.84-.19l.11,0h0a30,30,0,0,1,39.61,26c0,.1,0,.2,0,.3a3.55,3.55,0,0,0,.08.47c0,.17.1.33.15.49l.15.4a5.22,5.22,0,0,0,.26.47,2.5,2.5,0,0,0,.21.35c.1.14.22.27.33.41s.18.21.28.31.26.22.4.33l.33.26q.25.15.51.27a3.41,3.41,0,0,0,.33.17,4.58,4.58,0,0,0,.82.25l.09,0h0A39.08,39.08,0,0,1,969.5,159.2a38.67,38.67,0,0,1-2.24,13.05c0,.11,0,.22-.08.32s-.11.38-.14.57,0,.3,0,.45,0,.34,0,.51,0,.32,0,.48,0,.32.08.48a3.22,3.22,0,0,0,.14.44,3.75,3.75,0,0,0,.17.47c.06.14.14.27.21.4a3.07,3.07,0,0,0,.26.43,2.85,2.85,0,0,0,.31.38c.1.12.2.24.32.36s.28.23.43.35a3.42,3.42,0,0,0,.28.22,29.92,29.92,0,0,1,13.34,21.48c0,.08,0,.14,0,.22s.06.29.1.44a4,4,0,0,0,.15.49c0,.13.1.26.16.39a4.17,4.17,0,0,0,.26.46,4,4,0,0,0,.22.34,4.23,4.23,0,0,0,.33.41,3.83,3.83,0,0,0,.28.29,4.12,4.12,0,0,0,.4.33,3.43,3.43,0,0,0,.33.24,4.31,4.31,0,0,0,.47.26l.35.17c.2.08.4.13.6.19l.3.08a5.23,5.23,0,0,0,1,.1h.25a29.89,29.89,0,0,1,29.59,25l0,.12a.28.28,0,0,0,0,.09c0,.09.06.17.08.26a5.4,5.4,0,0,0,.18.57c.05.12.11.23.16.35s.18.33.28.49.14.21.22.31a4.47,4.47,0,0,0,.35.41,2.29,2.29,0,0,0,.27.27,3.57,3.57,0,0,0,.43.34,3.06,3.06,0,0,0,.29.21,5.12,5.12,0,0,0,.52.27l.3.14a4.57,4.57,0,0,0,.63.19,2.5,2.5,0,0,0,.26.07,4.63,4.63,0,0,0,.92.09h.14a5.51,5.51,0,0,0,.69-.06l.1,0h.1a30.6,30.6,0,0,1,6.19-.64A29.94,29.94,0,0,1,1053.19,244H375c0-.33,0-.67,0-1A39.05,39.05,0,0,1,414,204Zm20.59,792.38L375.43,311.84h8.1Q420.27,654.11,457,996.38Zm27.45,0Q425.3,654.1,388.55,311.84H516.62l43.94,684.54Zm103.55,0L521.63,311.84H648.81Q656,647.22,663.14,982.61l.29,13.77Zm102.87,0-.3-13.87Q661,647.19,653.81,311.84H780.7Q777,482.9,773.39,654t-7.32,342.41Zm102.63,0q3.64-171.15,7.31-342.31l7.32-342.23H912.88l-44,684.54Zm102.87,0,43.95-684.54h128.05L972.49,996.38Zm126,0H977.51L1051,311.84h8.1Zm66.32-694.54h-698c-13.78,0-25-10.73-25-23.92s11.22-23.92,25-23.92h698c13.79,0,25,10.73,25,23.92S1080,301.84,1066.25,301.84Z"/><path d="M890.79,153.59h0a.08.08,0,0,1,0,0Z"/><path d="M484.45,223.93A48.55,48.55,0,0,0,504,228a49,49,0,0,0,46.67-64,5,5,0,1,0-9.52,3.06,39,39,0,0,1-52.7,47.68,5,5,0,0,0-4,9.16Z"/><path d="M882.63,150.89a5.31,5.31,0,0,0,.22.75l0,.09a6.15,6.15,0,0,0,.4.76l.12.17a4.72,4.72,0,0,0,.57.7,5,5,0,0,0,3.53,1.46,4.7,4.7,0,0,0,.92-.09,2.46,2.46,0,0,0,.29-.07,5.26,5.26,0,0,0,.6-.18l.34-.16a3.46,3.46,0,0,0,.5-.27,3.88,3.88,0,0,0,.33-.23l.1-.08.15-.11.06,0,.07-.06a5,5,0,0,0,.53-.49c.07-.08.14-.15.2-.23a4.54,4.54,0,0,0,.36-.5,2.33,2.33,0,0,0,.17-.26,5.3,5.3,0,0,0,.27-.59c0-.08.07-.15.1-.23s0,0,0,0a4.15,4.15,0,0,0,.14-.61,2,2,0,0,0,.06-.26,5.43,5.43,0,0,0,0-.9,39.11,39.11,0,0,1,13.68-20.91,5.3,5.3,0,0,0,.43-.38h0a5,5,0,0,0,0-7.07,4.91,4.91,0,0,0-.76-.62c-.09-.06-.19-.1-.29-.16a5.77,5.77,0,0,0-.55-.29l-.36-.12a4.81,4.81,0,0,0-.54-.16l-.39,0a4.53,4.53,0,0,0-.53,0h-.4a4.78,4.78,0,0,0-.53.06l-.4.09a4.67,4.67,0,0,0-.5.14l-.39.17a2.94,2.94,0,0,0-.46.25c-.13.07-.24.15-.36.23s-.15.1-.22.15a49.11,49.11,0,0,0-17.48,27.62c0,.13-.07.27-.09.4s0,.07,0,.11l0,.17a6,6,0,0,0-.07.74v.14a4.58,4.58,0,0,0,.08.83A1.06,1.06,0,0,0,882.63,150.89Z"/><path d="M762.74,129.2a40.06,40.06,0,0,0,34.8-20.3,5,5,0,1,0-8.7-4.92,30,30,0,0,1-54.48-5,5,5,0,1,0-9.46,3.24A40,40,0,0,0,762.74,129.2Z"/><path class="cls-17" d="M383.52,311.84Q420.26,654.11,457,996.38H434.57L375.43,311.84Z"/><path class="cls-17" d="M509.15,996.38H462L388.55,311.84H504.42Z"/><path class="cls-17" d="M383.52,311.84Q420.26,654.11,457,996.38H434.57L375.43,311.84Z"/><path class="cls-17" d="M486.77,996.38H462L388.55,311.84h46.7Z"/><path class="cls-18" d="M925.35,996.38h47.13L1046,311.84H930.08Z"/><path class="cls-18" d="M1051,311.84q-36.74,342.27-73.47,684.54h22.42l59.14-684.54Z"/><path class="cls-18" d="M947.73,996.38h24.75L1046,311.84h-46.7Z"/><path d="M1493.45,883.93l-13-49.7a5,5,0,0,0-3.16-3.44,70.77,70.77,0,0,1-29.71-113.15,5,5,0,0,0,1.06-4.55L1438,672.92l-2.5-9.53a5.06,5.06,0,0,0-6.11-3.57L987,776a5,5,0,0,0-3.57,6.1l13.06,49.72a5,5,0,0,0,3.16,3.44,70.75,70.75,0,0,1,29.7,113.12,5,5,0,0,0-1.06,4.55l1.14,4.36,11.91,45.36a5,5,0,0,0,6.11,3.56l42.07-11.05L1489.88,890A5,5,0,0,0,1493.45,883.93ZM1052.06,994.66h0l-2.31.61-11.13-42.38a80.77,80.77,0,0,0-33.12-126.12L994.37,784.4l38.14-10,28.56-7.5h0l366.05-96.12.68,2.6h0l10.44,39.76a80.77,80.77,0,0,0,33.12,126.14l11.12,42.37Z"/><rect class="cls-9" x="1075.45" y="758.53" width="325.99" height="148.98" transform="translate(-170.95 341.83) rotate(-14.71)"/><path class="cls-19" d="M1438.26,713.13l-11.12-42.36L994.37,784.4l11.13,42.38a80.74,80.74,0,0,1,33.11,126.12l11.13,42.37,432.77-113.63-11.13-42.37a80.77,80.77,0,0,1-33.12-126.14Zm-17.78,151.69a2.51,2.51,0,0,1-1.79,3.06l-320.13,84a2.49,2.49,0,0,1-3-1.78L1056.4,801.22a2.5,2.5,0,0,1,1.78-3.05l320.14-84.06a2.49,2.49,0,0,1,3,1.78Z"/><path class="cls-20" d="M1471.6,840.11l-.22-.84a80.2,80.2,0,0,1-13.88-7.08A81,81,0,0,0,1471.6,840.11Z"/><path class="cls-20" d="M1041.61,954.9a80.72,80.72,0,0,0-19.23-119,80.73,80.73,0,0,1,16.23,117l11.13,42.37,2.31-.6Z"/><path class="cls-20" d="M997.37,786.4l430.45-113-.68-2.61L994.37,784.4l11.13,42.38c.93.37,1.86.76,2.78,1.16Z"/><path class="cls-21" d="M1489.88,890,1089.51,995.16l-42.07,11.05a5,5,0,0,1-6.11-3.56l-11.91-45.36c1.86-3.39,3.09-5.28,3.09-5.28,44.5-57.45,0-102,0-102V767l28.56-.09h0c72-.23,258.68-.71,306.34.09,59.43,1,59.71-96.21,59.71-96.21l10.9,2.16,10.55,40.17a5,5,0,0,1-1.06,4.55,70.77,70.77,0,0,0,29.71,113.15,5,5,0,0,1,3.16,3.44l13,49.7A5,5,0,0,1,1489.88,890Z"/><path class="cls-22" d="M1378.32,714.11l-320.14,84.06a2.5,2.5,0,0,0-1.78,3.05l39.11,148.93a2.49,2.49,0,0,0,3,1.78l320.13-84a2.51,2.51,0,0,0,1.79-3.06l-39.11-148.93A2.49,2.49,0,0,0,1378.32,714.11ZM1415,863.67l-315.3,82.79-37.84-144.09,315.3-82.79Z"/><path class="cls-23" d="M1148.21,910l-5.14-10.4-5.13,10.4a2.5,2.5,0,0,1-1.88,1.37L1124.58,913l8.3,8.09a2.51,2.51,0,0,1,.72,2.22l-2,11.43,10.27-5.4a2.52,2.52,0,0,1,2.33,0l10.26,5.4-2-11.43a2.51,2.51,0,0,1,.72-2.22l8.31-8.09-11.48-1.67A2.5,2.5,0,0,1,1148.21,910Z"/><path class="cls-23" d="M1336.25,910l-5.13-10.4L1326,910a2.52,2.52,0,0,1-1.88,1.37L1312.63,913l8.3,8.09a2.51,2.51,0,0,1,.72,2.22l-2,11.43,10.27-5.4a2.46,2.46,0,0,1,2.32,0l10.27,5.4-2-11.43a2.51,2.51,0,0,1,.72-2.22l8.31-8.09-11.48-1.67A2.51,2.51,0,0,1,1336.25,910Z"/><path class="cls-23" d="M1273.57,910l-5.13-10.4-5.13,10.4a2.51,2.51,0,0,1-1.89,1.37L1249.94,913l8.31,8.09a2.51,2.51,0,0,1,.72,2.22l-2,11.43,10.27-5.4a2.47,2.47,0,0,1,2.32,0l10.27,5.4-2-11.43a2.51,2.51,0,0,1,.72-2.22l8.3-8.09-11.48-1.67A2.52,2.52,0,0,1,1273.57,910Z"/><path class="cls-23" d="M1398.94,910l-5.14-10.4-5.13,10.4a2.5,2.5,0,0,1-1.88,1.37L1375.31,913l8.3,8.09a2.51,2.51,0,0,1,.72,2.22l-2,11.43,10.27-5.4a2.49,2.49,0,0,1,1.16-.29,2.56,2.56,0,0,1,1.17.29l10.26,5.4-2-11.43a2.51,2.51,0,0,1,.72-2.22l8.31-8.09-11.48-1.67A2.48,2.48,0,0,1,1398.94,910Z"/><path class="cls-19" d="M1054,787.61v41.73a77.68,77.68,0,0,1,0,125.31v41.73h428.88V954.66a77.69,77.69,0,0,1,0-125.33V787.61ZM1436.43,969a2.5,2.5,0,0,1-2.5,2.5h-331a2.5,2.5,0,0,1-2.5-2.5V815a2.5,2.5,0,0,1,2.5-2.5h331a2.5,2.5,0,0,1,2.5,2.5Z"/><path class="cls-20" d="M1482.88,955.34v-.68a77.42,77.42,0,0,1-7.53-6.29A79.06,79.06,0,0,0,1482.88,955.34Z"/><path class="cls-20" d="M1057,957.65a77.65,77.65,0,0,0,7.52-119,77.65,77.65,0,0,1-10.52,116v41.73h3Z"/><path class="cls-20" d="M1057,790.61h425.88v-3H1054v41.73c1,.75,2,1.53,3,2.33Z"/><path class="cls-23" d="M1210.89,910l-5.13-10.4-5.14,10.4a2.5,2.5,0,0,1-1.88,1.37L1187.26,913l8.31,8.09a2.51,2.51,0,0,1,.72,2.22l-2,11.43,10.27-5.4a2.49,2.49,0,0,1,2.33,0l10.27,5.4-2-11.43a2.53,2.53,0,0,1,.71-2.22l8.31-8.09-11.48-1.67A2.5,2.5,0,0,1,1210.89,910Z"/><path class="cls-9" d="M1431.43,817.51h-326v149h326ZM1265,848.74a4.52,4.52,0,0,1,.9-3.07,3.06,3.06,0,0,1,2.44-1,3.21,3.21,0,0,1,2.47,1,4.37,4.37,0,0,1,.94,3.08v11.68L1285,846.6a12.14,12.14,0,0,1,1.62-1.48,3,3,0,0,1,1.79-.48,3.27,3.27,0,0,1,2.35.86,2.74,2.74,0,0,1,.9,2.08,4.14,4.14,0,0,1-1.53,2.93l-8.2,7.77,9.45,13.55a16.63,16.63,0,0,1,1.5,2.47,4.7,4.7,0,0,1,.51,2.06,2.59,2.59,0,0,1-.88,1.93,3.37,3.37,0,0,1-2.38.82,4,4,0,0,1-2.29-.6,5.28,5.28,0,0,1-1.5-1.61c-.41-.66-.77-1.27-1.09-1.82l-8-12.27-5.53,5.29V875a4.43,4.43,0,0,1-1,3.11,3.39,3.39,0,0,1-4.12.55,3.11,3.11,0,0,1-1.22-1.22,4,4,0,0,1-.39-1.48c0-.56-.07-1.37-.07-2.43Zm-53.46,0a4.42,4.42,0,0,1,.93-3.07,3.08,3.08,0,0,1,2.41-1,3.22,3.22,0,0,1,2.47,1,4.42,4.42,0,0,1,.94,3.08V875a4.51,4.51,0,0,1-.94,3.1,3.22,3.22,0,0,1-2.47,1,3.11,3.11,0,0,1-2.4-1,4.42,4.42,0,0,1-.94-3.08Zm-42.87,64.34-11,10.72,2.6,15.13a2.5,2.5,0,0,1-1,2.44,2.46,2.46,0,0,1-1.47.48,2.55,2.55,0,0,1-1.16-.29l-13.59-7.14-13.58,7.14a2.5,2.5,0,0,1-3.63-2.63l2.59-15.13-11-10.72a2.5,2.5,0,0,1,1.39-4.26l15.19-2.21,6.79-13.77a2.5,2.5,0,0,1,2.24-1.39,2.53,2.53,0,0,1,2.25,1.39l6.79,13.77,15.19,2.21a2.48,2.48,0,0,1,2,1.7A2.51,2.51,0,0,1,1168.69,913.08Zm7.94-65.07a2.54,2.54,0,0,1,.88-2,3.77,3.77,0,0,1,2.53-.75h21.46a3.72,3.72,0,0,1,2.6.78,2.59,2.59,0,0,1,.86,2,2.55,2.55,0,0,1-.87,2,3.8,3.8,0,0,1-2.59.76h-7.37V875a4.48,4.48,0,0,1-.93,3.11,3.13,3.13,0,0,1-2.41,1,3.17,3.17,0,0,1-2.44-1,4.46,4.46,0,0,1-.94-3.1V850.78H1180a3.72,3.72,0,0,1-2.57-.76A2.59,2.59,0,0,1,1176.63,848Zm54.74,65.07-11,10.72,2.59,15.13a2.5,2.5,0,0,1-2.46,2.92,2.56,2.56,0,0,1-1.17-.29l-13.58-7.14-13.59,7.14a2.5,2.5,0,0,1-3.63-2.63l2.6-15.13-11-10.72a2.51,2.51,0,0,1-.63-2.56,2.48,2.48,0,0,1,2-1.7l15.19-2.21,6.79-13.77a2.51,2.51,0,0,1,4.49,0l6.79,13.77,15.19,2.21a2.48,2.48,0,0,1,2,1.7A2.51,2.51,0,0,1,1231.37,913.08Zm2.85-36a13.15,13.15,0,0,1-3.24-2.79,16.19,16.19,0,0,1-2.25-3.51,18.27,18.27,0,0,1-1.4-4.15,22.65,22.65,0,0,1-.46-4.68,20.85,20.85,0,0,1,1.17-7.21,15.44,15.44,0,0,1,3.35-5.44,14.41,14.41,0,0,1,5.12-3.44,16.48,16.48,0,0,1,6.25-1.19,15.55,15.55,0,0,1,7.2,1.62,13,13,0,0,1,4.85,4,7.87,7.87,0,0,1,1.68,4.49,2.9,2.9,0,0,1-.82,2,2.62,2.62,0,0,1-2,.89,2.72,2.72,0,0,1-1.94-.61,8.61,8.61,0,0,1-1.45-2.12,10.09,10.09,0,0,0-3.1-3.7,7.55,7.55,0,0,0-4.4-1.23,8,8,0,0,0-6.62,3.16q-2.48,3.17-2.47,9a16.65,16.65,0,0,0,1.09,6.47,8.2,8.2,0,0,0,3.09,3.85,8.56,8.56,0,0,0,4.69,1.27,8.25,8.25,0,0,0,4.92-1.44,8.72,8.72,0,0,0,3-4.24,7.31,7.31,0,0,1,1.07-2.15,2.43,2.43,0,0,1,2.05-.83,2.84,2.84,0,0,1,2.06.84,2.79,2.79,0,0,1,.87,2.09,8.78,8.78,0,0,1-.79,3.45,12.45,12.45,0,0,1-2.46,3.64A12.7,12.7,0,0,1,1249,878a15.29,15.29,0,0,1-6.09,1.12,21.51,21.51,0,0,1-4.8-.5A13.45,13.45,0,0,1,1234.22,877.05Zm59.83,36-11,10.72,2.59,15.13a2.49,2.49,0,0,1-3.62,2.63l-13.59-7.14-13.59,7.14a2.5,2.5,0,0,1-3.63-2.63l2.6-15.13-11-10.72a2.49,2.49,0,0,1,1.38-4.26l15.19-2.21,6.8-13.77a2.5,2.5,0,0,1,4.48,0l6.79,13.77,15.19,2.21a2.5,2.5,0,0,1,1.39,4.26Zm7.72-38.68v-25a5.63,5.63,0,0,1,.43-2.38,2.71,2.71,0,0,1,1.35-1.34,5.73,5.73,0,0,1,2.36-.42h17.82a3.48,3.48,0,0,1,2.4.72,2.42,2.42,0,0,1,.78,1.87,2.46,2.46,0,0,1-.78,1.9,3.48,3.48,0,0,1-2.4.72h-15.21v8.18h14a3.31,3.31,0,0,1,2.31.7,2.34,2.34,0,0,1,.76,1.83,2.46,2.46,0,0,1-.75,1.85,3.24,3.24,0,0,1-2.32.71h-14v9.48h15.73a3.46,3.46,0,0,1,2.4.74,2.55,2.55,0,0,1,.81,2,2.47,2.47,0,0,1-.81,1.92,3.46,3.46,0,0,1-2.4.74h-18.34a3.53,3.53,0,0,1-4.14-4.14Zm55,38.68-11,10.72,2.6,15.13a2.5,2.5,0,0,1-1,2.44,2.46,2.46,0,0,1-1.47.48,2.49,2.49,0,0,1-1.16-.29l-13.59-7.14-13.59,7.14a2.49,2.49,0,0,1-3.62-2.63l2.59-15.13-11-10.72a2.5,2.5,0,0,1,1.38-4.26l15.2-2.21,6.79-13.77a2.5,2.5,0,0,1,4.48,0l6.8,13.77,15.19,2.21a2.49,2.49,0,0,1,1.38,4.26Zm2.65-63.06a3.8,3.8,0,0,1-2.59.76h-7.36V875a4.48,4.48,0,0,1-.94,3.11,3.13,3.13,0,0,1-2.41,1,3.17,3.17,0,0,1-2.44-1,4.46,4.46,0,0,1-.94-3.1V850.78h-7.37a3.72,3.72,0,0,1-2.57-.76,2.59,2.59,0,0,1-.84-2,2.54,2.54,0,0,1,.88-2,3.77,3.77,0,0,1,2.53-.75h21.46a3.72,3.72,0,0,1,2.6.78,2.59,2.59,0,0,1,.86,2A2.55,2.55,0,0,1,1359.38,850Zm60,63.06-11,10.72,2.6,15.13a2.5,2.5,0,0,1-1,2.44,2.46,2.46,0,0,1-1.47.48,2.55,2.55,0,0,1-1.16-.29l-13.59-7.14-13.58,7.14a2.5,2.5,0,0,1-3.63-2.63l2.59-15.13-11-10.72a2.5,2.5,0,0,1,1.39-4.26l15.19-2.21,6.79-13.77a2.5,2.5,0,0,1,2.24-1.39,2.53,2.53,0,0,1,2.25,1.39l6.79,13.77,15.19,2.21a2.5,2.5,0,0,1,1.39,4.26Z"/><path d="M1487.88,777.61H1049a5,5,0,0,0-5,5v49.32a5,5,0,0,0,2.18,4.13,67.67,67.67,0,0,1,0,111.88,5,5,0,0,0-2.18,4.13v49.31a5,5,0,0,0,5,5h438.88a5,5,0,0,0,5-5v-49.3a5,5,0,0,0-2.18-4.13,67.69,67.69,0,0,1,0-111.9,5,5,0,0,0,2.18-4.13V782.61A5,5,0,0,0,1487.88,777.61Zm-5,51.72a77.69,77.69,0,0,0,0,125.33v41.72H1054V954.65a77.67,77.67,0,0,0,0-125.31V787.61h428.88Z"/><path class="cls-21" d="M1451.11,892a77.67,77.67,0,0,0,31.77,62.67v41.72H1060.33c18.39-.3,75.1-3.1,146.8-24.9,69.44-21.11,152.95-60.05,229.3-131.81a578.79,578.79,0,0,0,46.45-49.06v38.72A77.66,77.66,0,0,0,1451.11,892Z"/><path class="cls-22" d="M1103,971.49h331a2.5,2.5,0,0,0,2.5-2.5V815a2.49,2.49,0,0,0-2.5-2.5H1103a2.49,2.49,0,0,0-2.5,2.5V969A2.5,2.5,0,0,0,1103,971.49Zm2.5-154h326v149h-326Z"/><path d="M1167.3,908.82l-15.19-2.21-6.79-13.77a2.53,2.53,0,0,0-2.25-1.39,2.5,2.5,0,0,0-2.24,1.39L1134,906.61l-15.19,2.21a2.5,2.5,0,0,0-1.39,4.26l11,10.72-2.59,15.13a2.5,2.5,0,0,0,3.63,2.63l13.58-7.14,13.59,7.14a2.55,2.55,0,0,0,1.16.29,2.46,2.46,0,0,0,1.47-.48,2.5,2.5,0,0,0,1-2.44l-2.6-15.13,11-10.72a2.51,2.51,0,0,0,.63-2.56A2.48,2.48,0,0,0,1167.3,908.82Zm-14,12.31a2.51,2.51,0,0,0-.72,2.22l2,11.43-10.26-5.4a2.52,2.52,0,0,0-2.33,0l-10.27,5.4,2-11.43a2.51,2.51,0,0,0-.72-2.22l-8.3-8.09,11.48-1.67a2.5,2.5,0,0,0,1.88-1.37l5.13-10.4,5.14,10.4a2.5,2.5,0,0,0,1.88,1.37l11.48,1.67Z"/><path d="M1230,908.82l-15.19-2.21L1208,892.84a2.51,2.51,0,0,0-4.49,0l-6.79,13.77-15.19,2.21a2.48,2.48,0,0,0-2,1.7,2.51,2.51,0,0,0,.63,2.56l11,10.72-2.6,15.13a2.5,2.5,0,0,0,3.63,2.63l13.59-7.14,13.58,7.14a2.56,2.56,0,0,0,1.17.29,2.5,2.5,0,0,0,2.46-2.92l-2.59-15.13,11-10.72a2.51,2.51,0,0,0,.63-2.56A2.48,2.48,0,0,0,1230,908.82Zm-14,12.31a2.53,2.53,0,0,0-.71,2.22l2,11.43-10.27-5.4a2.49,2.49,0,0,0-2.33,0l-10.27,5.4,2-11.43a2.51,2.51,0,0,0-.72-2.22l-8.31-8.09,11.48-1.67a2.5,2.5,0,0,0,1.88-1.37l5.14-10.4,5.13,10.4a2.5,2.5,0,0,0,1.88,1.37l11.48,1.67Z"/><path d="M1292.66,908.82l-15.19-2.21-6.79-13.77a2.5,2.5,0,0,0-4.48,0l-6.8,13.77-15.19,2.21a2.49,2.49,0,0,0-1.38,4.26l11,10.72-2.6,15.13a2.5,2.5,0,0,0,3.63,2.63l13.59-7.14,13.59,7.14a2.49,2.49,0,0,0,3.62-2.63l-2.59-15.13,11-10.72a2.5,2.5,0,0,0-1.39-4.26Zm-14,12.31a2.51,2.51,0,0,0-.72,2.22l2,11.43-10.27-5.4a2.47,2.47,0,0,0-2.32,0l-10.27,5.4,2-11.43a2.51,2.51,0,0,0-.72-2.22l-8.31-8.09,11.48-1.67a2.51,2.51,0,0,0,1.89-1.37l5.13-10.4,5.13,10.4a2.52,2.52,0,0,0,1.88,1.37l11.48,1.67Z"/><path d="M1355.35,908.82l-15.19-2.21-6.8-13.77a2.5,2.5,0,0,0-4.48,0l-6.79,13.77-15.2,2.21a2.5,2.5,0,0,0-1.38,4.26l11,10.72-2.59,15.13a2.49,2.49,0,0,0,3.62,2.63l13.59-7.14,13.59,7.14a2.49,2.49,0,0,0,1.16.29,2.46,2.46,0,0,0,1.47-.48,2.5,2.5,0,0,0,1-2.44l-2.6-15.13,11-10.72a2.49,2.49,0,0,0-1.38-4.26Zm-14,12.31a2.51,2.51,0,0,0-.72,2.22l2,11.43-10.27-5.4a2.46,2.46,0,0,0-2.32,0l-10.27,5.4,2-11.43a2.51,2.51,0,0,0-.72-2.22l-8.3-8.09,11.48-1.67A2.52,2.52,0,0,0,1326,910l5.13-10.4,5.13,10.4a2.51,2.51,0,0,0,1.89,1.37l11.48,1.67Z"/><path d="M1418,908.82l-15.19-2.21-6.79-13.77a2.53,2.53,0,0,0-2.25-1.39,2.5,2.5,0,0,0-2.24,1.39l-6.79,13.77-15.19,2.21a2.5,2.5,0,0,0-1.39,4.26l11,10.72-2.59,15.13a2.5,2.5,0,0,0,3.63,2.63l13.58-7.14,13.59,7.14a2.55,2.55,0,0,0,1.16.29,2.46,2.46,0,0,0,1.47-.48,2.5,2.5,0,0,0,1-2.44l-2.6-15.13,11-10.72a2.5,2.5,0,0,0-1.39-4.26Zm-14,12.31a2.51,2.51,0,0,0-.72,2.22l2,11.43-10.26-5.4a2.56,2.56,0,0,0-1.17-.29,2.49,2.49,0,0,0-1.16.29l-10.27,5.4,2-11.43a2.51,2.51,0,0,0-.72-2.22l-8.3-8.09,11.48-1.67a2.5,2.5,0,0,0,1.88-1.37l5.13-10.4,5.14,10.4a2.48,2.48,0,0,0,1.88,1.37L1412.3,913Z"/><path d="M1187.41,850.78V875a4.46,4.46,0,0,0,.94,3.1,3.17,3.17,0,0,0,2.44,1,3.13,3.13,0,0,0,2.41-1,4.48,4.48,0,0,0,.93-3.11V850.78h7.37a3.8,3.8,0,0,0,2.59-.76,2.55,2.55,0,0,0,.87-2,2.59,2.59,0,0,0-.86-2,3.72,3.72,0,0,0-2.6-.78H1180a3.77,3.77,0,0,0-2.53.75,2.54,2.54,0,0,0-.88,2,2.59,2.59,0,0,0,.84,2,3.72,3.72,0,0,0,2.57.76Z"/><path d="M1214.9,879.11a3.22,3.22,0,0,0,2.47-1,4.51,4.51,0,0,0,.94-3.1V848.74a4.42,4.42,0,0,0-.94-3.08,3.22,3.22,0,0,0-2.47-1,3.08,3.08,0,0,0-2.41,1,4.42,4.42,0,0,0-.93,3.07V875a4.42,4.42,0,0,0,.94,3.08A3.11,3.11,0,0,0,1214.9,879.11Z"/><path d="M1249,878a12.7,12.7,0,0,0,4.3-2.89,12.45,12.45,0,0,0,2.46-3.64,8.78,8.78,0,0,0,.79-3.45,2.79,2.79,0,0,0-.87-2.09,2.84,2.84,0,0,0-2.06-.84,2.43,2.43,0,0,0-2.05.83,7.31,7.31,0,0,0-1.07,2.15,8.72,8.72,0,0,1-3,4.24,8.25,8.25,0,0,1-4.92,1.44,8.56,8.56,0,0,1-4.69-1.27,8.2,8.2,0,0,1-3.09-3.85,16.65,16.65,0,0,1-1.09-6.47q0-5.82,2.47-9a8,8,0,0,1,6.62-3.16,7.55,7.55,0,0,1,4.4,1.23,10.09,10.09,0,0,1,3.1,3.7,8.61,8.61,0,0,0,1.45,2.12,2.72,2.72,0,0,0,1.94.61,2.62,2.62,0,0,0,2-.89,2.9,2.9,0,0,0,.82-2,7.87,7.87,0,0,0-1.68-4.49,13,13,0,0,0-4.85-4,15.55,15.55,0,0,0-7.2-1.62,16.48,16.48,0,0,0-6.25,1.19,14.41,14.41,0,0,0-5.12,3.44,15.44,15.44,0,0,0-3.35,5.44,20.85,20.85,0,0,0-1.17,7.21,22.65,22.65,0,0,0,.46,4.68,18.27,18.27,0,0,0,1.4,4.15,16.19,16.19,0,0,0,2.25,3.51,13.15,13.15,0,0,0,3.24,2.79,13.45,13.45,0,0,0,3.92,1.56,21.51,21.51,0,0,0,4.8.5A15.29,15.29,0,0,0,1249,878Z"/><path d="M1265.48,877.43a3.11,3.11,0,0,0,1.22,1.22,3.39,3.39,0,0,0,4.12-.55,4.43,4.43,0,0,0,1-3.11V868.1l5.53-5.29,8,12.27c.32.55.68,1.16,1.09,1.82a5.28,5.28,0,0,0,1.5,1.61,4,4,0,0,0,2.29.6,3.37,3.37,0,0,0,2.38-.82,2.59,2.59,0,0,0,.88-1.93,4.7,4.7,0,0,0-.51-2.06,16.63,16.63,0,0,0-1.5-2.47L1282,858.28l8.2-7.77a4.14,4.14,0,0,0,1.53-2.93,2.74,2.74,0,0,0-.9-2.08,3.27,3.27,0,0,0-2.35-.86,3,3,0,0,0-1.79.48,12.14,12.14,0,0,0-1.62,1.48l-13.26,13.82V848.74a4.37,4.37,0,0,0-.94-3.08,3.21,3.21,0,0,0-2.47-1,3.06,3.06,0,0,0-2.44,1,4.52,4.52,0,0,0-.9,3.07v24.78c0,1.06,0,1.87.07,2.43A4,4,0,0,0,1265.48,877.43Z"/><path d="M1324.25,878.54a3.46,3.46,0,0,0,2.4-.74,2.47,2.47,0,0,0,.81-1.92,2.55,2.55,0,0,0-.81-2,3.46,3.46,0,0,0-2.4-.74h-15.73v-9.48h14a3.24,3.24,0,0,0,2.32-.71,2.46,2.46,0,0,0,.75-1.85,2.34,2.34,0,0,0-.76-1.83,3.31,3.31,0,0,0-2.31-.7h-14v-8.18h15.21a3.48,3.48,0,0,0,2.4-.72,2.46,2.46,0,0,0,.78-1.9,2.42,2.42,0,0,0-.78-1.87,3.48,3.48,0,0,0-2.4-.72h-17.82a5.73,5.73,0,0,0-2.36.42,2.71,2.71,0,0,0-1.35,1.34,5.63,5.63,0,0,0-.43,2.38v25a3.53,3.53,0,0,0,4.14,4.14Z"/><path d="M1356.79,845.21h-21.46a3.77,3.77,0,0,0-2.53.75,2.54,2.54,0,0,0-.88,2,2.59,2.59,0,0,0,.84,2,3.72,3.72,0,0,0,2.57.76h7.37V875a4.46,4.46,0,0,0,.94,3.1,3.17,3.17,0,0,0,2.44,1,3.13,3.13,0,0,0,2.41-1,4.48,4.48,0,0,0,.94-3.11V850.78h7.36a3.8,3.8,0,0,0,2.59-.76,2.55,2.55,0,0,0,.87-2,2.59,2.59,0,0,0-.86-2A3.72,3.72,0,0,0,1356.79,845.21Z"/><rect class="cls-15" x="746.16" y="866.38" width="174.5" height="100"/><polygon class="cls-24" points="917.43 966.38 893.41 966.38 793.42 866.38 817.43 866.38 917.43 966.38"/><polygon class="cls-24" points="877.71 966.38 820.23 966.38 746.16 892.31 746.16 866.38 777.7 866.38 877.71 966.38"/><path class="cls-9" d="M955.18,836.38h-608A40.57,40.57,0,0,1,312,871.57v89.62a40.58,40.58,0,0,1,35.19,35.19h251V964.94a53,53,0,0,1,106,0v31.44h251a40.59,40.59,0,0,1,35.19-35.19V871.57A40.58,40.58,0,0,1,955.18,836.38Zm-389,135a5,5,0,0,1-5,5H376.68a5,5,0,0,1-5-5v-110a5,5,0,0,1,5-5h184.5a5,5,0,0,1,5,5Zm364.48,0a5,5,0,0,1-5,5H741.16a5,5,0,0,1-5-5v-110a5,5,0,0,1,5-5h184.5a5,5,0,0,1,5,5Z"/><path class="cls-4" d="M962.19,854.56a40.28,40.28,0,0,1-7-18.18h-7.43A40.77,40.77,0,0,0,962.19,854.56Z"/><path class="cls-4" d="M980.37,869v82.19a40.59,40.59,0,0,0-35.19,35.19h-241v10h251a40.59,40.59,0,0,1,35.19-35.19V871.57A40.27,40.27,0,0,1,980.37,869Z"/><path class="cls-4" d="M641.17,902a53.06,53.06,0,0,0-53,53v31.44H344.59a40.27,40.27,0,0,1,2.57,10h251V964.94a53,53,0,0,1,85.12-42.11A52.93,52.93,0,0,0,641.17,902Z"/><path class="cls-4" d="M312,953.76v7.43a40.24,40.24,0,0,1,18.18,7A40.64,40.64,0,0,0,312,953.76Z"/><rect class="cls-25" x="381.68" y="866.38" width="174.5" height="100"/><g class="cls-26"><polygon class="cls-9" points="556.18 963.87 556.18 966.38 534.67 966.38 434.67 866.38 458.69 866.38 556.18 963.87"/><polygon class="cls-9" points="518.96 966.38 461.48 966.38 381.68 886.57 381.68 866.38 418.95 866.38 518.96 966.38"/></g><path d="M995.37,861.88a30.53,30.53,0,0,1-30.5-30.5,5,5,0,0,0-5-5H342.47a5,5,0,0,0-5,5,30.53,30.53,0,0,1-30.5,30.5,5,5,0,0,0-5,5v99a5,5,0,0,0,5,5,30.53,30.53,0,0,1,30.5,30.5,5,5,0,0,0,5,5h260.7a5,5,0,0,0,5-5V964.94a43,43,0,0,1,86,0v36.44a5,5,0,0,0,5,5h260.7a5,5,0,0,0,5-5,30.53,30.53,0,0,1,30.5-30.5,5,5,0,0,0,5-5v-99A5,5,0,0,0,995.37,861.88Zm-5,99.31a40.59,40.59,0,0,0-35.19,35.19h-251V964.94a53,53,0,0,0-106,0v31.44h-251A40.58,40.58,0,0,0,312,961.19V871.57a40.57,40.57,0,0,0,35.19-35.19h608a40.58,40.58,0,0,0,35.19,35.19Z"/><path d="M561.18,856.38H376.68a5,5,0,0,0-5,5v110a5,5,0,0,0,5,5h184.5a5,5,0,0,0,5-5v-110A5,5,0,0,0,561.18,856.38Zm-5,110H381.68v-100h174.5Z"/><path d="M925.66,856.38H741.16a5,5,0,0,0-5,5v110a5,5,0,0,0,5,5h184.5a5,5,0,0,0,5-5v-110A5,5,0,0,0,925.66,856.38Zm-5,110H746.16v-100h174.5Z"/></g></g></g></svg>